<?xml version="1.0" encoding="utf-8"?>
<!-- Generator: Adobe Illustrator 22.0.1, SVG Export Plug-In . SVG Version: 6.00 Build 0)  -->
<!DOCTYPE svg PUBLIC "-//W3C//DTD SVG 1.1//EN" "http://www.w3.org/Graphics/SVG/1.1/DTD/svg11.dtd" [
	<!ENTITY st0 "fill:#161513;">
	<!ENTITY st1 "fill:#2F3977;">
	<!ENTITY st2 "fill:#EFE745;">
	<!ENTITY st3 "fill:#9D292F;">
	<!ENTITY st4 "fill:#EEE745;">
	<!ENTITY st5 "fill:#FDFDFB;">
	<!ENTITY st6 "fill:#CDC755;">
	<!ENTITY st7 "fill:#CECA7B;">
	<!ENTITY st8 "fill:#D4D171;">
	<!ENTITY st9 "fill:#D5D174;">
]>
<svg version="1.1" id="Layer_1" xmlns="http://www.w3.org/2000/svg" xmlns:xlink="http://www.w3.org/1999/xlink" x="0px" y="0px"
	 width="60px" height="60px" viewBox="0 0 60 60" style="enable-background:new 0 0 60 60;" xml:space="preserve">
<path style="&st0;" d="M30,60C13.4,60,0,46.6,0,30C0,13.4,13.4,0,30,0c16.6,0,30,13.4,30,30C60,46.6,46.6,60,30,60z M1.8,28.3
	c-0.1,0.6-0.1,1.2-0.1,1.8c0,0.4,0,0.9,0,1.3c0,0.7,0,1.3,0.1,2c0.1,1.3,0.3,2.5,0.6,3.7c0.6,2.6,1.6,5,3.1,7.2
	c0.1,0.1,0.2,0.3,0.4,0.4c0-2.8,0.5-5.1,1.1-6.7c1.7-4.8,4.7-8.6,8.6-11.6c0.2-0.2,0.3-0.3,0.2-0.6c-0.3-0.6-0.4-1.2-0.4-1.8
	c-0.1-1.4,0.1-2.7,0.5-4c0.1-0.3,0-0.4-0.2-0.5c-0.8-0.4-1.6-0.8-2.4-1.1c-2.4-1-4.9-1.7-7.6-1.8c-0.3,0-0.4,0.1-0.5,0.3
	c-1,2-1.8,4-2.4,6.2C2.3,24.8,1.9,26.5,1.8,28.3z M58.5,28.2c0-0.1,0-0.1,0-0.2c-0.3-3.2-1.1-6.2-2.4-9.1c-0.1-0.2-0.2-0.3-0.4-0.4
	c-2.1-1.7-4.5-2.4-7.2-2.6c-1.2-0.1-2.4-0.1-3.6,0c-0.9,0-1.9,0.2-2.8,0.3C39,16.7,36,17.5,33,18.7c-0.2,0.1-0.3,0.2-0.2,0.4
	c0.3,1.1,0.4,2.2,0.3,3.3c-0.1,2.1-0.8,4-2.2,5.6c-0.2,0.2-0.2,0.3,0,0.5c3.6,2.9,7.3,5.7,11.1,8.2c3.9,2.6,7.9,5,12.2,7
	c0.6,0.3,0.6,0.3,0.9-0.3c0.9-1.5,1.6-3.1,2.2-4.7c0.6-1.9,1.1-3.8,1.2-5.7c0.1-0.5,0.1-1,0.1-1.4C58.7,30.5,58.7,29.3,58.5,28.2z
	 M22.9,36c-0.1,2,0,3.9,0.2,5.9c0.1,0.7,0.1,1.4,0.2,2c0.1,0.9,0.3,1.7,0.4,2.6c0.2,1.2,0.4,2.3,0.7,3.4c0.3,1.3,0.7,2.6,1.2,3.9
	c0.5,1.3,1.1,2.5,1.8,3.7c0.1,0.1,0.2,0.3,0.4,0.3c1,0.2,1.9,0.2,2.9,0.3c0.8,0.1,1.6-0.1,2.5-0.1c1.5-0.1,2.9-0.4,4.3-0.8
	c1.7-0.5,3.4-1.2,5-2.1c1.7-0.9,3.3-2,4.9-3.2c1.7-1.3,3.3-2.8,4.8-4.4c0.7-0.8,1.4-1.6,2.1-2.4c0.1-0.2,0.2-0.3-0.1-0.4
	c-1.6-0.6-3.2-1.4-4.7-2.2c-1.1-0.6-2.1-1.2-3.1-1.8c-1.6-0.9-3.1-2-4.6-3c-2.2-1.5-4.4-3.1-6.5-4.7c-1.6-1.2-3.2-2.5-4.8-3.8
	c-0.2-0.2-0.3-0.2-0.5,0c-0.6,0.6-1.2,1.1-1.9,1.5c-0.6,0.4-1.3,0.6-2,0.8c-0.8,0.2-1.6,0.1-2.5,0.1c-0.3,0-0.4,0.1-0.4,0.4
	c0,0.1,0,0.3,0,0.4C22.9,33.5,22.9,34.8,22.9,36z M22.3,31.8c0.1-0.2,0-0.4-0.4-0.4c-0.6-0.1-1.2-0.2-1.7-0.5
	c-1.7-0.8-2.9-2-3.8-3.6c-0.1-0.2-0.2-0.3-0.4-0.1c-1.6,1.4-3.1,2.9-4.4,4.6c-2.1,2.7-3.6,5.6-4.4,8.9c-0.3,1.5-0.6,2.9-0.6,4.4
	c0,0.7,0.1,1.4,0.6,2c0.2,0.2,0.3,0.4,0.4,0.6c1,1.5,2.2,2.8,3.5,4.1c1.7,1.6,3.5,3,5.6,4.1c1.1,0.6,2.3,1.1,3.4,1.4
	c1,0.3,2,0.6,3.1,0.7c0.7,0.1,1.5,0.1,2.2,0.2c0.2,0,0.3,0,0.1-0.2c-0.2-0.3-0.4-0.6-0.5-1c-0.9-2.1-1.5-4.3-1.9-6.6
	c-0.3-1.8-0.6-3.7-0.7-5.6c-0.2-2.1-0.3-4.3-0.3-6.5C22.1,36.2,22.1,34,22.3,31.8z M55.1,17c0-0.2,0-0.2,0-0.2
	c-0.5-0.9-1.1-1.8-1.6-2.6c-1.3-2-2.9-3.8-4.7-5.4c-1.2-1.1-2.4-2-3.8-2.8c-1.5-0.9-3.1-1.7-4.7-2.3c-1.1-0.4-2.2-0.7-3.3-1
	c-1-0.2-2-0.3-2.9-0.5c-0.5-0.1-1.1-0.2-1.5,0c-1.7,0.8-3.2,1.9-4.4,3.3c-1.9,2.1-2.9,4.7-3.4,7.5c0,0.2,0,0.3,0.2,0.3
	c0.8,0.1,1.6,0.3,2.4,0.5c2.2,0.7,3.9,1.9,4.8,4c0.1,0.3,0.2,0.2,0.4,0.1c0.6-0.2,1.2-0.5,1.8-0.7c2.3-0.8,4.6-1.5,7-1.9
	c1.6-0.3,3.3-0.5,4.9-0.5c1.2,0,2.3,0,3.4,0.2c1,0.2,2,0.4,2.9,0.7C53.5,16.1,54.3,16.5,55.1,17z M16.6,22.5c0,4.3,3.5,7.8,7.8,7.8
	c4.3,0,7.8-3.5,7.8-7.8c0-4.3-3.5-7.8-7.8-7.8C20,14.7,16.6,18.2,16.6,22.5z M31.4,1.9c-1.1,0-2.1-0.1-3,0c-1.6,0.1-3.2,0.4-4.7,0.7
	C22,3,20.5,3.5,19,4.1c-1.6,0.7-3.2,1.5-4.6,2.5c-2.1,1.4-4,3.1-5.7,5c-1,1.2-2,2.4-2.8,3.8c-0.2,0.2-0.1,0.3,0.2,0.4
	c1.4,0.1,2.7,0.3,4.1,0.7c2.1,0.5,4.1,1.3,6,2.3c0.2,0.1,0.3,0.1,0.4-0.1c0.7-1.7,1.9-2.9,3.4-3.8c1-0.6,2.1-1.1,3.3-1.4
	c0.4-0.1,0.6-0.2,0.7-0.7c0.1-0.9,0.4-1.9,0.7-2.8c0.4-1.3,1-2.5,1.7-3.6c0.9-1.3,1.9-2.5,3.2-3.4C30.1,2.6,30.7,2.2,31.4,1.9z"/>
<path style="&st1;" d="M22.9,36c0-1.2,0-2.5,0-3.7c0-0.1,0-0.3,0-0.4c0-0.3,0.1-0.4,0.4-0.4c0.8,0,1.6,0.1,2.5-0.1
	c0.7-0.2,1.4-0.4,2-0.8c0.7-0.4,1.4-0.9,1.9-1.5c0.2-0.2,0.3-0.2,0.5,0c1.6,1.3,3.2,2.5,4.8,3.8c2.1,1.6,4.3,3.2,6.5,4.7
	c1.5,1,3.1,2.1,4.6,3c1,0.6,2,1.2,3.1,1.8c1.5,0.8,3.1,1.6,4.7,2.2c0.3,0.1,0.2,0.2,0.1,0.4c-0.7,0.8-1.3,1.7-2.1,2.4
	c-1.5,1.6-3.1,3.1-4.8,4.4c-1.5,1.2-3.2,2.3-4.9,3.2c-1.6,0.9-3.2,1.6-5,2.1c-1.4,0.4-2.8,0.7-4.3,0.8c-0.8,0.1-1.6,0.2-2.5,0.1
	c-1-0.1-2-0.1-2.9-0.3c-0.2,0-0.3-0.2-0.4-0.3c-0.7-1.1-1.3-2.4-1.8-3.7c-0.5-1.3-0.9-2.6-1.2-3.9c-0.3-1.1-0.5-2.3-0.7-3.4
	c-0.1-0.9-0.3-1.7-0.4-2.6c-0.1-0.7-0.1-1.4-0.2-2C22.9,39.9,22.9,38,22.9,36z"/>
<path style="&st2;" d="M58.5,33c-0.1,2-0.6,3.9-1.2,5.7c-0.6,1.6-1.3,3.2-2.2,4.7c-0.3,0.6-0.3,0.6-0.9,0.3c-4.2-2-8.3-4.4-12.2-7
	c-3.8-2.5-7.5-5.3-11.1-8.2c-0.2-0.2-0.3-0.3,0-0.5c1.4-1.6,2.1-3.5,2.2-5.6c0.1-1.1,0-2.2-0.3-3.3c-0.1-0.2,0-0.3,0.2-0.4
	c3-1.2,6-2,9.1-2.5c0.9-0.1,1.8-0.3,2.8-0.3c1.2,0,2.4,0,3.6,0c2.6,0.2,5.1,0.9,7.2,2.6c0.1,0.1,0.3,0.2,0.4,0.4
	c1.3,2.9,2.1,6,2.4,9.1c0,0.1,0,0.1,0,0.2C58.5,29.8,58.5,31.4,58.5,33z"/>
<path style="&st3;" d="M22.3,31.8c-0.2,2.2-0.2,4.4-0.1,6.5c0.1,2.2,0.1,4.3,0.3,6.5c0.2,1.9,0.4,3.7,0.7,5.6c0.4,2.3,1,4.5,1.9,6.6
	c0.1,0.3,0.3,0.6,0.5,1c0.1,0.2,0.1,0.3-0.1,0.2c-0.7-0.1-1.5-0.1-2.2-0.2c-1-0.1-2.1-0.4-3.1-0.7c-1.2-0.4-2.3-0.9-3.4-1.4
	c-2.1-1.1-3.9-2.5-5.6-4.1c-1.3-1.2-2.5-2.6-3.5-4.1c-0.1-0.2-0.3-0.4-0.4-0.6c-0.5-0.6-0.6-1.2-0.6-2c0-1.5,0.3-3,0.6-4.4
	c0.8-3.3,2.3-6.2,4.4-8.9c1.3-1.7,2.8-3.2,4.4-4.6c0.2-0.2,0.3-0.1,0.4,0.1c0.9,1.6,2.1,2.8,3.8,3.6c0.5,0.2,1.1,0.4,1.7,0.5
	C22.3,31.4,22.4,31.6,22.3,31.8z"/>
<path style="&st3;" d="M55.1,17c-0.8-0.5-1.6-0.9-2.4-1.2c-0.9-0.3-1.9-0.6-2.9-0.7c-1.1-0.2-2.3-0.2-3.4-0.2
	c-1.7,0-3.3,0.2-4.9,0.5c-2.4,0.4-4.7,1.1-7,1.9c-0.6,0.2-1.2,0.5-1.8,0.7c-0.2,0.1-0.3,0.1-0.4-0.1c-1-2.1-2.7-3.3-4.8-4
	c-0.8-0.3-1.6-0.4-2.4-0.5c-0.2,0-0.3-0.1-0.2-0.3c0.5-2.8,1.5-5.3,3.4-7.5c1.2-1.4,2.7-2.5,4.4-3.3c0.5-0.2,1-0.1,1.5,0
	c1,0.1,2,0.3,2.9,0.5c1.1,0.2,2.2,0.6,3.3,1C41.9,4.2,43.5,5,45,5.9c1.3,0.8,2.6,1.8,3.8,2.8c1.8,1.6,3.3,3.4,4.7,5.4
	c0.6,0.8,1.1,1.7,1.6,2.6C55.1,16.8,55.1,16.9,55.1,17z"/>
<path style="&st4;" d="M1.7,31.4c0-0.4,0-0.9,0-1.3c0.2-0.6,0.1-1.2,0.1-1.8c0.1-1.8,0.5-3.5,1-5.2c0.6-2.1,1.4-4.2,2.4-6.2
	c0.1-0.2,0.2-0.3,0.5-0.3c2.6,0.2,5.1,0.9,7.6,1.8c0.8,0.3,1.6,0.7,2.4,1.1c0.2,0.1,0.3,0.2,0.2,0.5c-0.4,1.3-0.6,2.6-0.5,4
	c0,0.6,0.1,1.3,0.4,1.8c0.1,0.3,0,0.4-0.2,0.6c-4,3-7,6.8-8.6,11.6c-0.6,1.6-1.1,3.9-1.1,6.7c-0.2-0.1-0.3-0.3-0.4-0.4
	c-1.5-2.2-2.5-4.6-3.1-7.2c-0.3-1.2-0.6-2.4-0.6-3.7C1.8,32.8,1.9,32.1,1.7,31.4z"/>
<path style="&st5;" d="M16.6,22.5c0-4.3,3.5-7.8,7.8-7.8c4.3,0,7.8,3.5,7.8,7.8c0,4.3-3.5,7.8-7.8,7.8
	C20.1,30.2,16.6,26.7,16.6,22.5z"/>
<path style="&st1;" d="M31.4,1.9c-0.7,0.4-1.3,0.7-1.9,1.1c-1.3,1-2.3,2.1-3.2,3.4C25.6,7.5,25,8.7,24.6,10
	c-0.3,0.9-0.6,1.8-0.7,2.8c0,0.4-0.3,0.6-0.7,0.7c-1.2,0.3-2.3,0.8-3.3,1.4c-1.5,0.9-2.7,2.2-3.4,3.8c-0.1,0.2-0.2,0.2-0.4,0.1
	c-1.9-1-3.9-1.8-6-2.3c-1.3-0.4-2.7-0.6-4.1-0.7c-0.3,0-0.3-0.1-0.2-0.4c0.8-1.3,1.7-2.6,2.8-3.8c1.7-1.9,3.6-3.6,5.7-5
	c1.5-1,3-1.8,4.6-2.5C20.5,3.5,22,3,23.6,2.6c1.6-0.4,3.1-0.6,4.7-0.7C29.3,1.8,30.3,1.9,31.4,1.9z"/>
<path style="&st6;" d="M58.5,33c0-1.6,0-3.2,0-4.8c0.2,1.1,0.2,2.3,0.1,3.4C58.6,32.1,58.7,32.6,58.5,33z"/>
<path style="&st7;" d="M48.6,15.9c-1.2,0-2.4,0-3.6,0C46.2,15.7,47.4,15.7,48.6,15.9z"/>
<path style="&st8;" d="M1.7,31.4c0.2,0.7,0.1,1.3,0.1,2C1.7,32.8,1.7,32.1,1.7,31.4z"/>
<path style="&st9;" d="M1.8,28.3c0,0.6,0.1,1.2-0.1,1.8C1.7,29.5,1.7,28.9,1.8,28.3z"/>

	<animateTransform attributeName="transform"
					  attributeType="XML"
					  type="rotate"
					  from="0 0 0"
					  to= "360 0 0"
					  dur="1s"
					  repeatCount="indefinite" />

</svg>
