<?xml version="1.0" encoding="utf-8"?>

<svg version="1.1" id="Layer_1" xmlns="http://www.w3.org/2000/svg" xmlns:xlink="http://www.w3.org/1999/xlink" x="0px" y="0px"
	 viewBox="0 0 1080 1080" style="enable-background:new 0 0 1080 1080;" xml:space="preserve">
<style type="text/css">
	.st0{fill:#3E4CA0;}
	.st1{fill:#EEF0F4;}
	.st2{fill:#C6CBDA;}
	.st3{fill:#B7C0E2;}
	.st4{fill:#DCE2F3;}
	.st5{fill:#B2B8CE;}
	.st6{fill:#E8EDF7;}
</style>
<g>
	<path class="st0" d="M639.3,447.4c0,0,26.8-11.7,46.8-14.4c0,0-20.2-30.4-74.5-18.8C611.6,414.2,629.9,426.4,639.3,447.4z"/>
	<path class="st0" d="M640.5,536c0,0,26.9,11.7,46.9,14.3c0,0-20.1,30.4-74.5,18.9C612.9,569.3,631.1,557,640.5,536z"/>
	<polygon class="st0" points="636.4,454.9 636.4,529.4 626.2,523 626.1,462.8 	"/>
	<path class="st0" d="M865.1,492c0,0-21.9-21.6-47.4-33.2l0,33.2l0,33.2C843.3,513.6,865.1,492,865.1,492z"/>
	<path class="st0" d="M812.7,526.5l0-34.9l0-34.9c-95.3-48.5-172.8-4.1-172.8-4.1l0,39.1l0,39.1
		C639.9,530.9,717.5,575.2,812.7,526.5z M731.6,491.7c0-13.2,10.7-24,23.9-24s24,10.7,24,23.9c0,13.2-10.7,24-23.9,24
		C742.4,515.6,731.7,504.9,731.6,491.7z"/>

		<animateTransform id="lines"
							attributeName="transform"
							attributeType="XML"
							type="translate"
							begin=".1"
							dur="0.4s"
							values="0,2;0,-2;0,2"
							repeatCount="indefinite" />
                     </g>

<g>
<ellipse class="st1" cx="335.7" cy="398.5" rx="74.5" ry="77"/>

		<animateTransform attributeName="transform"
						  attributeType="XML"
						  type="rotate"
						  from="0 332 398.5"
						  to= "360 332 398.5"
						  dur="1s"
						  repeatCount="indefinite" /> </g>

<g>
<ellipse class="st1" cx="289.9" cy="571.1" rx="74.5" ry="77"/>

		<animateTransform attributeName="transform"
						  attributeType="XML"
						  type="rotate"
						  from="0 287 571.1"
						  to= "365 287 571.1"
						  dur="1.1s"
						  repeatCount="indefinite" /> </g>

<!-- small circle flying to the left -->
<g>
<ellipse class="st1" cx="205.7" cy="465.3" rx="38.1" ry="39.4"/>

		<animateTransform attributeName="transform"
						  attributeType="XML"
						  type="rotate"
						  from="0 203 465.3"
						  to= "365 203 465.3"
						  dur="0.8s"
						  repeatCount="indefinite" /> </g>

<g>
<ellipse class="st2" cx="332" cy="487.1" rx="38.1" ry="39.4"/>

		<animateTransform attributeName="transform"
						  attributeType="XML"
						  type="rotate"
						  from="0 330 487.1"
						  to= "365 330 487.1"
						  dur="0.8s"
						  repeatCount="indefinite" /> </g>

<!-- small circle flying to the left -->
<g>
<ellipse class="st1" cx="121" cy="429.3" rx="27.7" ry="28.6"/>

		<animateTransform attributeName="transform"
						  attributeType="XML"
						  type="rotate"
						  from="0 117 429.3"
						  to= "365 117 429.3"
						  dur="1s"
						  repeatCount="indefinite" /> </g>


<!-- small circle flying to the left -->
<g>
<ellipse class="st1" cx="42.2" cy="477" rx="18.5" ry="19.2"/>

		<animateTransform attributeName="transform"
						  attributeType="XML"
						  type="rotate"
						  from="0 40 477"
						  to= "365 40 477"
						  dur="1s"
						  repeatCount="indefinite" /> </g>

<!-- start smoke moving up/down -->
<g>
<polygon class="st3" points="615,464.1 565.4,453.3 564.8,535.6 615.3,521.5 "/>
		<animateTransform id="lines"
							attributeName="transform"
							attributeType="XML"
							type="translate"
							begin=".1"
							dur="0.7s"
							values="0;0;0;0,1.5;0,-1.5;0,1.5"
							repeatCount="indefinite" /> </g>

<g>
<ellipse class="st4" cx="413.2" cy="320.1" rx="61.3" ry="59.4"/>

		<animateTransform attributeName="transform"
						  attributeType="XML"
						  type="rotate"
						  from="0 411 320.1"
						  to= "365 411 320.1"
						  dur="1.2s"
						  repeatCount="indefinite" /> </g>

<g>
<ellipse class="st4" cx="378.4" cy="629" rx="67.3" ry="62.1"/>

		<animateTransform attributeName="transform"
						  attributeType="XML"
						  type="rotate"
						  from="0 376 629"
						  to= "365 376 629"
						  dur="1.5s"
						  repeatCount="indefinite" /> </g>

<g>
<circle class="st2" cx="494.3" cy="373.1" r="69.8"/>

		<animateTransform attributeName="transform"
						  attributeType="XML"
						  type="rotate"
						  from="0 492 373.1"
						  to= "365 492 373.1"
						  dur="1s"
						  repeatCount="indefinite" /> </g>

<g>
<circle class="st5" cx="482.3" cy="579.3" r="83.8"/>

		<animateTransform attributeName="transform"
						  attributeType="XML"
						  type="rotate"
						  from="0 480 579.3"
						  to= "365 480 579.3"
						  dur="1.1s"
						  repeatCount="indefinite" /> </g>

<g>
<ellipse class="st6" cx="457.8" cy="486.1" rx="127" ry="126.7"/>

		<animateTransform attributeName="transform"
						  attributeType="XML"
						  type="rotate"
						  from="0 450 486.1"
						  to= "365 450 486.1"
						  dur="1.1s"
						  repeatCount="indefinite" /> </g>

<g>
<circle class="st2" cx="492.7" cy="489.4" r="94.6"/>

		<animateTransform attributeName="transform"
						  attributeType="XML"
						  type="rotate"
						  from="0 489 489.4"
						  to= "365 489 489.4"
						  dur="0.9s"
						  repeatCount="indefinite" /> </g>


<g>
<circle class="st4" cx="512.4" cy="492.5" r="74.3"/>

		<animateTransform attributeName="transform"
						  attributeType="XML"
						  type="rotate"
						  from="0 508 492.5"
						  to= "365 508 492.5"
						  dur="0.7s"
						  repeatCount="indefinite" /> </g>


</svg>
