<?xml version="1.0" encoding="utf-8"?>
<!-- Generator: Adobe Illustrator 23.0.1, SVG Export Plug-In . SVG Version: 6.00 Build 0)  -->
<svg version="1.1" id="Layer_1" xmlns="http://www.w3.org/2000/svg" xmlns:xlink="http://www.w3.org/1999/xlink" x="0px" y="0px"
	 viewBox="0 0 512 512" style="enable-background:new 0 0 512 512;" xml:space="preserve">
<style type="text/css">
	.st0{fill:#8E562E;stroke:#000000;stroke-width:12;stroke-miterlimit:10;}
	.st1{fill:#613D30;}
	.st2{stroke:#FFFFFF;stroke-width:7;stroke-miterlimit:10;}
	.st3{fill:#E81224;}
	.st4{fill:none;stroke:#000000;stroke-width:12;stroke-miterlimit:10;}
</style>
<g>
	<path class="st0" d="M247.8,192.5l25-0.7c0,0,13.2-6.2,12.5-35.7c0,0,59.6,5,39.9,67.9c0,0,38.8,8,27.7,43.7
		c0,0,21.1,7.1,20.4,28.8s-13,29.8-21.1,29.8c-8.1,0-150.8,0-150.8,0s-21.8-6.6-22.2-26c-0.3-19.4,15.6-30.2,25.6-30.2
		c0,0-14.2-37.3,21.5-42.3C226.3,227.9,216.8,193.8,247.8,192.5z"/>
	<path class="st1" d="M332.6,233.1h-103c-2.1,0-3.9-1.8-3.9-3.9v-3.5c0-2.1,1.8-3.9,3.9-3.9h103c2.1,0,3.9,1.8,3.9,3.9v3.5
		C336.5,231.3,334.7,233.1,332.6,233.1z"/>
	<path class="st1" d="M358.1,278.2H198.2c-2,0-3.6-1.6-3.6-3.6v-5.1c0-2,1.6-3.6,3.6-3.6h159.9c2,0,3.6,1.6,3.6,3.6v5.1
		C361.8,276.6,360.1,278.2,358.1,278.2z"/>
	<path class="st1" d="M365.6,324.1H192.1c-3.3,0-6-2.7-6-6v-3.4c0-3.3,2.7-6,6-6h173.5c3.3,0,6,2.7,6,6v3.4
		C371.6,321.4,368.9,324.1,365.6,324.1z"/>
	<g>
		<path class="st2" d="M253.1,268.4h-2.4c-6.6,0-12-5.4-12-12v-17.3c0-6.6,5.4-12,12-12h2.4c6.6,0,12,5.4,12,12v17.3
			C265,263,259.6,268.4,253.1,268.4z"/>
		<path class="st2" d="M307,266.6h-4.1c-6.6,0-12-5.4-12-12v-13.8c0-6.6,5.4-12,12-12h4.1c6.6,0,12,5.4,12,12v13.8
			C319,261.2,313.6,266.6,307,266.6z"/>
	</g>
	<g>
		<path d="M245,291.3l64.5-0.3c0,0-6.2,29.6-19.8,30.8c-13.5,1.2-25.3,0.3-25.3,0.3s-2.4-1.4-5.5-4
			C253.2,313.3,245.3,304.2,245,291.3z"/>
		<path class="st3" d="M260.5,316.7c0,0,16.3-22.5,32.9,0.7l1.6,2l-2.7,1.8l-5.3,0.8l-9,0.3h-9.6l-3.2-0.1l-2.3-1l-3.7-2.9
			L260.5,316.7z"/>
	</g>
	<path class="st4" d="M247.7,192.3l25-0.7c0,0,13.2-6.2,12.5-35.7c0,0,59.6,5,39.9,67.9c0,0,38.8,8,27.7,43.7
		c0,0,21.1,7.1,20.4,28.8c-0.7,21.7-13,29.8-21.1,29.8s-150.8,0-150.8,0s-21.8-6.6-22.2-26c-0.3-19.4,15.6-30.2,25.6-30.2
		c0,0-14.2-37.3,21.5-42.3C226.2,227.6,216.7,193.5,247.7,192.3z"/>
</g>
</svg>
