<?xml version="1.0" encoding="utf-8"?>
<!-- Generator: Adobe Illustrator 22.0.1, SVG Export Plug-In . SVG Version: 6.00 Build 0)  -->
<!DOCTYPE svg PUBLIC "-//W3C//DTD SVG 1.1//EN" "http://www.w3.org/Graphics/SVG/1.1/DTD/svg11.dtd" [
	<!ENTITY st0 "fill:#3D9A53;">
	<!ENTITY st1 "fill:#2E7F45;">
	<!ENTITY st2 "fill:#2D7E46;">
	<!ENTITY st3 "fill:#3C9955;">
	<!ENTITY st4 "fill:#A5B14B;">
]>
<svg version="1.1" id="Layer_1" xmlns="http://www.w3.org/2000/svg" xmlns:xlink="http://www.w3.org/1999/xlink" x="0px" y="0px"
	 width="390px" height="215.4px" viewBox="0 0 390 215.4" style="enable-background:new 0 0 390 215.4;" xml:space="preserve">
<path style="&st0;" d="M248.2,43.3c0.8,1.2,1.4,2.9,2.5,3.4c19.9,8.4,32.3,23.8,39.9,43.4c3.3,8.5,5.4,17.5,8.1,26.3
	c0.2,1.1,0.3,2.2,0.7,3.2c1.2,3.2,0.5,6-1.7,8.6c-4.4,5.3-10.6,7.9-16.7,10c-9.1,3.2-18.4,5.5-28.2,6.1c-15.2,0.9-30.4,2.2-45.6,3.5
	c-2.2,0.2-4.3,1.4-6.5,2.2c0,0-0.1-0.1-0.1-0.1c0.3-2.3-1.3-2-2.8-2.1c-12.3-0.5-24.6-0.6-36.8-1.5c-12.7-1-25.3-2.5-37.9-4.3
	c-9.7-1.4-18.9-4.7-27-10.4c-5.1-3.5-6.5-6.9-5.2-12.9c0.2-0.7,0.1-1.4,0.2-2.1c3.2-13.5,7.4-26.7,14.3-38.9
	c8.3-14.8,20-25.7,36.1-31.6c1.6,1.2,3.1,3,5,3.6c14.4,4.5,29.4,5.3,44.4,5.8c6.3,0.2,12.7-0.5,19-0.6c10.9-0.1,21.6-2,32.2-4.4
	C247.2,49.3,248,48.1,248.2,43.3z M269,111c-0.1-9.2-4.8-20.4-11.2-26.7c-4.1-4.1-9.8-5.3-14.9-3c-5.1,2.3-6.6,6.9-7,12
	c-0.6,8.5,2.5,16,6.3,23.2c2.4,4.5,6,8.2,11.4,8.8C263.8,126.6,269.1,121.6,269,111z M154.3,95.1c-0.5-2.8-0.3-6-1.6-8.3
	c-5.3-9.4-15.7-7.9-21.6-1.4c-6.1,6.6-8.8,15-10,23.6c-0.6,3.7,0.1,8.7,2.3,11.5c5.3,6.7,16.2,7.3,22.4-1
	C150.9,112.3,153.9,104.2,154.3,95.1z"/>
<path style="&st0;" d="M326.1,190.8c-24.9,5-50.1,7.2-75.4,8.9c-6.6,0.5-13.3,1.4-19.9,2.1c-1.2-0.2-2.5-0.7-3.7-0.7
	c-8.1,0.4-16.1,1.3-24.2,1.3c-14.9-0.1-29.8-0.9-44.8-1.3c-3.9-0.2-7.7-0.4-11.6-0.6c-0.5,0-1,0-1.4-0.1c-0.7,0-1.4-0.1-2.1-0.1
	c-4.3-0.4-8.7-0.8-13-1.1c-17.7-2-35.4-3.9-53-6c-4.3-0.5-8.5-1.5-12.7-2.3c-0.4-0.1-0.9-0.3-1.3-0.4c0,0-0.1,0-0.1,0
	c7.8-7.7,15.4-15.5,23.5-22.9c4.5-4.1,9.8-7.4,14.8-11.1c7.7,1.7,15.3,3.7,23,4.9c8.9,1.4,18,2.2,27,3c12.8,1.1,25.5,2.2,38.3,2.7
	c8.2,0.3,16.5-0.3,24.7-0.6c5-0.2,10-0.2,15-0.8c13.7-1.5,27.4-3.1,41.1-5.1c5.6-0.8,11.1-2.8,16.6-4.2c0.7,1.1,1.1,2.5,2.1,3.3
	c1.8,1.6,4.1,2.6,5.8,4.3c1.6,1.6,3.1,2.4,5.2,1.7c1.6,1,3.5,1.6,4.9,2.9c7,6.5,13.9,13,20.8,19.7
	C326.2,188.8,326,189.9,326.1,190.8z"/>
<path style="&st1;" d="M287,156.4c-5.5,1.4-11,3.4-16.6,4.2c-13.7,2-27.4,3.6-41.1,5.1c-5,0.6-10,0.6-15,0.8
	c-8.2,0.3-16.5,1-24.7,0.6c-12.8-0.5-25.5-1.6-38.3-2.7c-9-0.8-18-1.6-27-3c-7.7-1.2-15.4-3.2-23-4.9c-3.8-1.5-7.6-3-11.4-4.5
	c-1.5-1.2-3-2.3-4.5-3.5c-7.2-5.6-11.6-13.5-7.8-22.3c3.3-5,7.9-8.1,13.6-9.5c-0.1,0.7-0.1,1.4-0.2,2.1c-1.3,5.9,0.1,9.3,5.2,12.9
	c8.2,5.7,17.3,9,27,10.4c12.6,1.8,25.2,3.3,37.9,4.3c12.2,1,24.5,1.1,36.8,1.5c1.5,0.1,3.1-0.2,2.8,2.1c-0.2,0.2-0.5,0.5-0.7,0.7
	c-0.1,0.1-0.2,0.3-0.3,0.4c0.1-0.1,0.3-0.2,0.4-0.3c0.2-0.2,0.5-0.5,0.7-0.7c2.2-0.7,4.3-2,6.5-2.2c15.2-1.3,30.4-2.6,45.6-3.5
	c9.7-0.6,19.1-2.9,28.2-6.1c6.2-2.1,12.3-4.7,16.7-10c2.2-2.6,2.9-5.4,1.7-8.6c-0.4-1-0.5-2.2-0.7-3.2c5.9,1.7,10.7,4.9,14.3,9.9
	c2.6,7.1,0.8,13.4-4.1,18.6c-2.5,2.7-5.9,4.7-8.8,7.1c-3.3,1.3-6.7,2.6-10,3.8C288.9,156,288,156.2,287,156.4z"/>
<path style="&st2;" d="M248.2,43.3c-0.2,4.8-1,6-6.1,7.2c-10.6,2.4-21.2,4.3-32.2,4.4c-6.3,0.1-12.7,0.8-19,0.6
	c-15-0.5-30-1.3-44.4-5.8c-1.8-0.6-3.3-2.4-5-3.6c3.8-17.7,13.1-31.2,29.3-39.9c30-16.1,64,0.9,75.2,30.3
	C246.8,38.8,247.4,41.1,248.2,43.3z"/>
<path style="&st3;" d="M77.5,126.1c-3.8,8.8,0.6,16.7,7.8,22.3c1.5,1.2,3,2.3,4.5,3.5c-6.4,4.7-13.2,9-19,14.3
	c-7.1,6.5-15.7,11.8-20.3,20.8c-0.1,0.3-0.6,0.3-0.9,0.5c-13.8-3.3-27.3-7.4-39.3-15.2c-1.9-1.2-3.6-2.8-5.2-4.4
	c-6.9-6.9-6.9-14.6,1.1-20.1c6.4-4.4,13.7-7.8,21-10.5C43.4,131.4,60.4,128.6,77.5,126.1z"/>
<path style="&st0;" d="M299.9,151.9c3-2.3,6.3-4.3,8.8-7.1c4.9-5.3,6.8-11.5,4.1-18.6c22.5,3.4,44.9,7,65.4,17.6
	c2.6,1.4,5.1,3.2,7.2,5.2c5.8,5.4,6,12.5,0.3,17.9c-3.4,3.3-7.3,6.2-11.4,8.5c-10.6,5.8-22.2,9.2-34,12c-1.3-1.7-2.3-3.7-3.9-5.2
	c-6-5.8-11.9-11.8-18.4-17.2C312.4,160.3,306,156.3,299.9,151.9z"/>
<path style="&st2;" d="M158.2,201c14.9,0.5,29.8,1.2,44.8,1.3c8.1,0.1,16.1-0.9,24.2-1.3c1.2-0.1,2.5,0.4,3.7,0.7
	c-13.5,11.6-29,15.8-46.4,12.5C174.5,212.4,165.7,207.9,158.2,201z"/>
<path style="&st4;" d="M299.9,151.9c6.1,4.4,12.5,8.4,18.3,13.2c6.4,5.4,12.4,11.3,18.4,17.2c1.5,1.5,2.6,3.5,3.9,5.2
	c-2.2,4-5.8,4.4-9.8,3.7c-1.5-0.3-3-0.3-4.6-0.4c-0.1-0.8,0.1-2-0.4-2.5c-6.9-6.6-13.8-13.2-20.8-19.7c-1.4-1.3-3.2-2-4.9-2.9
	c-2.2-1.9-4.6-3.8-6.7-5.9c-1.3-1.2-2.3-2.7-3.4-4.1C293.3,154.5,296.6,153.2,299.9,151.9z"/>
<path style="&st4;" d="M49.5,187.5c0.3-0.2,0.8-0.2,0.9-0.5c4.6-9,13.1-14.3,20.3-20.8c5.8-5.3,12.6-9.6,19-14.3
	c3.8,1.5,7.6,3,11.4,4.5c-5,3.7-10.3,6.9-14.8,11.1c-8.1,7.4-15.7,15.2-23.5,22.9c-1.7,0.3-3.5,0.8-5.2,1
	C54.2,191.8,51.5,190.4,49.5,187.5z"/>
<path style="&st4;" d="M63,190.4c0.4,0.1,0.9,0.3,1.3,0.4C63.9,190.7,63.5,190.5,63,190.4z"/>
<path style="&st4;" d="M269,111c0.1,10.6-5.2,15.6-15.4,14.3c-5.4-0.7-9-4.3-11.4-8.8c-3.8-7.2-6.9-14.8-6.3-23.2
	c0.4-5.1,1.9-9.7,7-12c5.1-2.3,10.7-1,14.9,3C264.2,90.6,269,101.9,269,111z"/>
<path style="&st4;" d="M154.3,95.1c-0.4,9.1-3.3,17.2-8.6,24.4c-6.1,8.3-17.1,7.7-22.4,1c-2.2-2.8-2.8-7.8-2.3-11.5
	c1.3-8.6,4-16.9,10-23.6c5.9-6.5,16.3-8.1,21.6,1.4C153.9,89.1,153.8,92.3,154.3,95.1z"/>
<path style="&st3;" d="M289.9,155.8c1.1,1.4,2.1,2.9,3.4,4.1c2.1,2,4.5,3.9,6.7,5.9c-2.2,0.7-3.6-0.2-5.2-1.7
	c-1.7-1.7-4-2.7-5.8-4.3c-0.9-0.8-1.4-2.2-2.1-3.3C288,156.2,288.9,156,289.9,155.8z"/>
<path style="&st0;" d="M199.8,150.6c0.2-0.2,0.5-0.5,0.7-0.7c0,0,0.1,0.1,0.1,0.1c-0.2,0.2-0.5,0.5-0.7,0.7L199.8,150.6z"/>
<path style="&st0;" d="M200,150.7c-0.1,0.1-0.3,0.2-0.4,0.3c0.1-0.1,0.2-0.3,0.3-0.4C199.8,150.6,200,150.7,200,150.7z"/>
</svg>
