<?xml version="1.0" encoding="utf-8"?>
<!-- Generator: Adobe Illustrator 22.0.1, SVG Export Plug-In . SVG Version: 6.00 Build 0)  -->
<!DOCTYPE svg PUBLIC "-//W3C//DTD SVG 1.1//EN" "http://www.w3.org/Graphics/SVG/1.1/DTD/svg11.dtd" [
	<!ENTITY st0 "fill:#6E779D;">
	<!ENTITY st1 "fill:#535A78;">
	<!ENTITY st2 "fill:#828AB9;">
]>
<svg version="1.1" id="Layer_1" xmlns="http://www.w3.org/2000/svg" xmlns:xlink="http://www.w3.org/1999/xlink" x="0px" y="0px"
	 width="170.1px" height="170.1px" viewBox="0 0 170.1 170.1" style="enable-background:new 0 0 170.1 170.1;" xml:space="preserve"
	>
<path style="&st0;" d="M42.1,150.5c-3.3-0.6-6.5-1.1-9.8-1.9c-8.9-2.3-17.8-4.7-26.7-7.3c-1.5-0.4-2.9-1.5-4.3-2.8
	c-1.5-1.4-1.7-3.4-0.5-5.6c0.9-1.5,1.9-3,3-3.7c5.3-3.3,10.5-6.9,15.9-9.4c9-4.2,18.2-7.8,27.3-11.1c5-1.8,10.2-2.6,15.3-3.9
	c-0.3,0.7-0.5,1.5-0.8,2.2c-1.2,3.4-1,6.6,0.7,7.7c1.6,1,3.2,2,4.9,2.6c3.2,1.1,6.3,2,9.5,2.6c3.1,0.6,6.3,1,9.5,0.9
	c3.2,0,6.4-0.3,9.5-1.2c4-1.2,7.9-3,11.9-4.7c1.2-0.5,1.9-2,1.6-4.2c-0.3-2-0.9-4-1.3-5.9c5.1,1.2,10.1,2.2,15.2,3.8
	c12.4,3.9,24.6,9.3,36.6,16c2.6,1.5,5.2,3.6,7.7,5.5c0.6,0.5,1.2,1.3,1.6,2.1c1.7,2.8,1.5,5.6-0.7,6.8c-4,2.1-8.1,4.2-12.2,5.2
	c-8.8,2.2-17.6,3.8-26.4,5.6c-0.6,0.1-1.2,0.7-1.7,1.1c-0.3-0.3-0.6-0.9-0.9-0.8c-4,0.4-8,1.2-12,1.4c-8,0.5-16,1.1-24,1.2
	c-8.7,0.1-17.5-0.3-26.2-0.5c-0.2,0-0.5,0-0.7,0C56.8,151.6,49.4,151,42.1,150.5z M146.8,129.7c-0.2-1.1-0.2-1.4-0.3-1.5
	c-4-5.8-8.8-7.2-13.8-7.1c-0.4,0-0.8,0.9-1.2,1.4c0.3,0.8,0.5,1.8,0.9,2.3c3.2,3.4,6.8,4.8,10.5,5.2
	C144.1,130.1,145.4,129.8,146.8,129.7z M23.5,129.1c3.5,3.1,13.9-1.5,15.2-6.7C35.9,118.8,25.7,123.2,23.5,129.1z M57.1,142
	c3.3,0,7.9-5.4,8.9-9.9c0.4-1.9-0.3-3.7-1.6-3.1c-3.3,1.3-6.2,3.8-8,8.9c-0.3,0.9-0.5,2.3-0.3,3.3C56.2,141.8,57.1,141.9,57.1,142z
	 M112.3,142.4c0.6-0.5,1.7-0.8,1.8-1.5c0.1-1.1-0.3-2.6-0.7-3.7c-0.5-1.2-1.1-2.4-1.8-3.2c-1.8-1.8-3.7-3.7-5.7-5
	c-1.3-0.9-2.2,0.9-1.8,3C105.2,136.3,109.7,142.8,112.3,142.4z"/>
<path style="&st1;" d="M107.8,104.9c0.5,2,1.1,3.9,1.3,5.9c0.3,2.2-0.5,3.7-1.6,4.2c-3.9,1.7-7.9,3.5-11.9,4.7
	c-3.1,0.9-6.3,1.2-9.5,1.2c-3.2,0-6.3-0.3-9.5-0.9c-3.2-0.6-6.4-1.6-9.5-2.6c-1.7-0.6-3.3-1.5-4.9-2.6c-1.6-1.1-1.8-4.3-0.7-7.7
	c0.3-0.7,0.5-1.5,0.8-2.2c3.9-4.8,7.7-9.7,11.7-14.2c1.4-1.6,3.1-2.3,4.7-3.4c0,3.6,0.3,4.6,2.3,4.7c2.7,0.1,5.5-0.3,8.2-0.4
	c1.6-0.1,2.3-1.4,2.1-4.2c4.1,1.9,7.5,5.8,10.9,10C104.3,99.6,106,102.3,107.8,104.9z"/>
<path style="&st1;" d="M42.1,150.5c7.4,0.6,14.7,1.1,22.1,1.7c0.2,0,0.5,0,0.7,0c8.7,0.2,17.5,0.6,26.2,0.5c8-0.1,16-0.6,24-1.2
	c4-0.3,8-1,12-1.4c0.3,0,0.6,0.5,0.9,0.8c-6.1,7.2-12.9,11.3-20,13.7c-6.7,2.3-13.4,4.3-20.2,5.2c-4.6,0.6-9.4-0.3-14.1-1.6
	c-6.4-1.8-12.8-4.2-19.1-7.3c-3.8-1.9-7.4-5.6-11-8.5C43,152,42.5,151.1,42.1,150.5z"/>
<path style="&st1;" d="M86,12.9c0.2,21.6,0.5,43.3,0.7,64.9c0,0.8,0.2,1.5,0.3,2.2c-1.2,3.5-2.5,3.5-4.1,0.2
	c0.2-1.2,0.6-2.3,0.6-3.5c0.3-21.2,0.5-42.5,0.7-63.7c0.4-0.8,0.9-1.7,1.3-2.5c0.1,0.2,0.3,0.3,0.4,0.5C85.9,11.6,86,12.2,86,12.9z"
	/>
<path style="&st0;" d="M82.9,80.2c1.6,3.4,2.9,3.3,4.1-0.2c1,1.6,2.1,3.1,3.1,4.7c0.5,0.8,0.9,1.8,1.3,2.7c0.2,2.8-0.5,4.1-2.1,4.2
	c-2.7,0.1-5.5,0.6-8.2,0.4c-2-0.1-2.3-1.1-2.3-4.7C80.2,84.9,81.5,82.6,82.9,80.2z"/>
<path style="&st0;" d="M86,12.9c0-0.7-0.1-1.3-0.1-2c-0.1-0.2-0.3-0.3-0.4-0.5c-0.4,0.8-0.9,1.7-1.3,2.5c-1.3-1-2.4-2.4-2.7-5
	c-0.4-3.3,0.6-6.6,2.4-7.7c1.7-1,3.7,0.4,4.5,3.2c0.8,3.1,0.3,6.6-1.3,8.4C86.7,12.3,86.3,12.6,86,12.9z"/>
<path style="&st2;" d="M146.8,129.7c-1.4,0.1-2.7,0.4-3.9,0.2c-3.7-0.3-7.3-1.7-10.5-5.2c-0.4-0.4-0.6-1.5-0.9-2.3
	c0.4-0.5,0.8-1.4,1.2-1.4c5-0.1,9.8,1.2,13.8,7.1C146.6,128.3,146.6,128.6,146.8,129.7z"/>
<path style="&st2;" d="M23.5,129.1c2.2-5.9,12.4-10.3,15.2-6.7C37.5,127.5,27,132.2,23.5,129.1z"/>
<path style="&st2;" d="M57.1,142c-0.1-0.1-1-0.2-1.1-0.8c-0.2-0.9,0-2.4,0.3-3.3c1.9-5.1,4.8-7.6,8-8.9c1.3-0.5,2,1.2,1.6,3.1
	C65,136.7,60.5,142,57.1,142z"/>
<path style="&st2;" d="M112.3,142.4c-2.6,0.4-7.2-6.1-8.2-10.4c-0.5-2,0.5-3.8,1.8-3c2,1.3,3.8,3.1,5.7,5c0.7,0.7,1.3,1.9,1.8,3.2
	c0.4,1.1,0.8,2.5,0.7,3.7C114.1,141.6,113,141.9,112.3,142.4z"/>
</svg>
