<?xml version="1.0" encoding="utf-8"?>
<!-- Generator: Adobe Illustrator 23.0.1, SVG Export Plug-In . SVG Version: 6.00 Build 0)  -->
<svg version="1.1" id="Layer_1" xmlns="http://www.w3.org/2000/svg" xmlns:xlink="http://www.w3.org/1999/xlink" x="0px" y="0px"
	 viewBox="0 0 116.4 119.1" style="enable-background:new 0 0 116.4 119.1;" xml:space="preserve">
<style type="text/css">
	.st0{fill:url(#SVGID_1_);}
	.st1{fill:url(#SVGID_2_);}
</style>
<g id="deathstar">
	<linearGradient id="SVGID_1_" gradientUnits="userSpaceOnUse" x1="37.1567" y1="4.3062" x2="77.8889" y2="116.217">
		<stop  offset="0.1501" style="stop-color:#97A0B0"/>
		<stop  offset="0.1868" style="stop-color:#9099AA"/>
		<stop  offset="0.4899" style="stop-color:#6D7689"/>
		<stop  offset="0.7344" style="stop-color:#596478"/>
		<stop  offset="0.8883" style="stop-color:#525D72"/>
	</linearGradient>
	<path class="st0" d="M85,101.2l14-7.4l-13.1-0.4l10.7-5l-14.2-5.5l20.5-0.4l0.2-7.2h-6.8l6.3-7l13.7-0.2V54.3h-12.9l-7.4-7.2h13.1
		l-7.6-6.5H75l7.4-7.9l18.3,0.2l-5.2-6.3l-8.3-0.7l-11.6-6.1l12-0.4l-19.4-7L77,7.9l7.9-2.2C77.2,2,68.6,0,59.5,0
		C26.7,0,0,26.7,0,59.5c0,32.9,26.7,59.5,59.5,59.5c16.2,0,31-6.5,41.7-17.1L85,101.2z"/>
	<linearGradient id="SVGID_2_" gradientUnits="userSpaceOnUse" x1="36.7904" y1="58.0795" x2="37.6614" y2="24.0721">
		<stop  offset="0.1501" style="stop-color:#97A0B0"/>
		<stop  offset="1" style="stop-color:#525D72"/>
	</linearGradient>
	<circle class="st1" cx="37.3" cy="38.6" r="17"/>
</g>
</svg>
