<?xml version="1.0" encoding="utf-8"?>
<!-- Generator: Adobe Illustrator 23.0.1, SVG Export Plug-In . SVG Version: 6.00 Build 0)  -->
<svg version="1.1" id="Layer_1" xmlns="http://www.w3.org/2000/svg" xmlns:xlink="http://www.w3.org/1999/xlink" x="0px" y="0px"
	 viewBox="0 0 141.9 142.1" style="enable-background:new 0 0 141.9 142.1;" xml:space="preserve">
<style type="text/css">
	.st0{fill:#CFCFCE;}
	.st1{fill:#CED2E0;stroke:#586787;stroke-miterlimit:10;}
	.st2{fill:#CFCFCE;stroke:#586787;stroke-miterlimit:10;}
	.st3{fill:#969395;}
	.st4{fill:none;stroke:#FFFFFF;stroke-miterlimit:10;}
	.st5{fill:#A1A2B1;stroke:#586787;stroke-miterlimit:10;}
	.st6{fill:#E9E8E8;stroke:#586787;stroke-miterlimit:10;}
	.st7{fill:#E2E2E2;stroke:#586787;stroke-miterlimit:10;}
	.st8{fill:#586787;}
</style>
<g id="falcom">
	<ellipse transform="matrix(0.7071 -0.7071 0.7071 0.7071 -41.4386 45.2668)" class="st0" cx="33.9" cy="72.7" rx="2.3" ry="0.8"/>
	<path class="st1" d="M30.8,44.1l-9.2-9.4l0.3-3.1L11.1,21l-2.7-0.1l-3.9-3.6l-4,3.9l19.2,52.2C19.8,73.3,20.5,58.1,30.8,44.1z"/>
	<path class="st1" d="M43.8,31.2L34.4,22l-3.1,0.3L20.7,11.5l-0.1-2.7L17,4.9l3.9-4l52.2,19.2C73.1,20.1,57.9,20.8,43.8,31.2z"/>
	<path class="st1" d="M85.5,141.6c0,0,45.9,0.2,55.9-55.8l-0.5-0.9l-3.6-6.8l-2.7-0.2l0.2,4.7l-0.9,7c0,0-2.9,12.7-10.3,22.3
		s-14.8,16.1-27.2,20.4c0,0-7.1,2.9-12.2,2.8L85.5,141.6z"/>
	<line class="st2" x1="141" y1="85.4" x2="134.3" y2="84.4"/>
	<g>
		<path class="st3" d="M85.6,79.2l31.1,5.8l2.8-3l15.5,2c0,0-3.2,19.9-15.5,33.2s-28.3,17.8-36.3,17.7L82.5,119l2.5-2.7l-5.2-28.2
			L85.6,79.2z"/>
		<path class="st4" d="M83.1,127.5c0,0,37.5-1.7,44.3-43.8"/>
	</g>
	<path class="st1" d="M117.9,48.6l2.8-6.9l-8.1-7.7l-5.6,3.3l2.4-6.9c-22.4-15.3-53.2-13-73.1,6.8c-19.7,19.7-22.1,50-7.3,72.3
		l7.8-2.7l-2.8,6.9l8.1,7.6l5.6-3.4l-2.6,7.8c22.3,14.9,52.8,12.5,72.6-7.2c19.7-19.7,22.1-50.1,7.3-72.4L117.9,48.6z"/>
	<g>
		<circle class="st5" cx="88.1" cy="102.4" r="3.9"/>
		<circle class="st5" cx="92" cy="113.7" r="3.9"/>
		<circle class="st5" cx="96.3" cy="97.1" r="3.9"/>
		<circle class="st5" cx="101.3" cy="88.5" r="3.9"/>
		<circle class="st5" cx="105" cy="105.5" r="3.9"/>
		<circle class="st5" cx="113.2" cy="92.9" r="3.9"/>
	</g>
	<g>
		<circle class="st6" cx="78.3" cy="78.5" r="14.7"/>
		<circle class="st6" cx="78.4" cy="78.4" r="14.7"/>
	</g>
	<polygon class="st5" points="72.9,8 77.5,18.1 79,16.8 79.3,12.6 74.8,5.8 	"/>
	<path class="st6" d="M87.3,8.2L87,8.9c-0.1,0.2-0.4,0.3-0.6,0.2l-8.6-5.3c-0.2-0.1-0.3-0.4-0.2-0.6l0.4-0.6
		c0.1-0.2,0.4-0.3,0.6-0.2l8.6,5.3C87.4,7.7,87.5,8,87.3,8.2z"/>
	<path class="st6" d="M80.3,2l-7,7c-0.3,0.3-0.7,0.3-1,0l-0.3-0.3c-0.3-0.3-0.3-0.7,0-1l7-7c0.3-0.3,0.7-0.3,1,0L80.3,1
		C80.5,1.3,80.5,1.8,80.3,2z"/>
	<path class="st5" d="M76.3,58.1c0,0,4.4-1.4,10.4,1.7l13.2-42L89.2,6.9l-2.3,2.3l-4-0.4l-3.6,3.1l0.2,4.4l-2.1,1.8l3.8,3.5
		L76.3,58.1z"/>
	<polygon class="st7" points="57.6,47.6 41.7,34.3 42.4,33.7 34.2,25.5 25.2,34.5 33.4,42.7 34,42.1 47.4,57.7 46.4,58.7 60,72.3 
		72.6,59.7 59,46.1 	"/>
	<path class="st5" d="M107.3,38.3l10.3,10.6c0,0-22.6,22.7-22.9,22.4C94.4,71,85.9,62,85.9,62L107.3,38.3z"/>
	<path class="st5" d="M37.8,106.9l10.6,10.3c0,0,22.7-22.6,22.4-22.9s-9.3-8.8-9.3-8.8L37.8,106.9z"/>
	<ellipse transform="matrix(0.7071 -0.7071 0.7071 0.7071 -41.3711 45.3893)" class="st6" cx="34.1" cy="72.6" rx="8.1" ry="4.3"/>
	<g>
		<circle class="st5" cx="16.9" cy="40.5" r="3.9"/>
		<circle class="st5" cx="20.1" cy="55.4" r="3.9"/>
		<circle class="st5" cx="40" cy="16.5" r="3.9"/>
		<circle class="st5" cx="54.9" cy="20.7" r="3.9"/>
	</g>
	<ellipse transform="matrix(0.7071 -0.7071 0.7071 0.7071 -41.5081 45.3207)" class="st8" cx="34" cy="72.8" rx="2.5" ry="1.9"/>
</g>
</svg>
