<?xml version="1.0" encoding="utf-8"?>
<!-- Generator: Adobe Illustrator 23.0.1, SVG Export Plug-In . SVG Version: 6.00 Build 0)  -->
<svg version="1.1" id="Layer_1" xmlns="http://www.w3.org/2000/svg" xmlns:xlink="http://www.w3.org/1999/xlink" x="0px" y="0px"
	 viewBox="0 0 512 512" style="enable-background:new 0 0 512 512;" xml:space="preserve">
<style type="text/css">
	.st0{fill:#CFCFCE;}
	.st1{fill:#CED2E0;stroke:#586787;stroke-miterlimit:10;}
	.st2{fill:#CFCFCE;stroke:#586787;stroke-miterlimit:10;}
	.st3{fill:#969395;}
	.st4{fill:none;stroke:#FFFFFF;stroke-miterlimit:10;}
	.st5{fill:#A1A2B1;stroke:#586787;stroke-miterlimit:10;}
	.st6{fill:#E9E8E8;stroke:#586787;stroke-miterlimit:10;}
	.st7{fill:#E2E2E2;stroke:#586787;stroke-miterlimit:10;}
	.st8{fill:#586787;}
	.st9{display:none;fill:none;stroke:#586787;stroke-miterlimit:10;}
</style>
<g>

		<ellipse transform="matrix(0.7071 -0.7071 0.7071 0.7071 -124.8265 175.5421)" class="st0" cx="149.5" cy="238.4" rx="5.4" ry="1.8"/>
	<path class="st1" d="M142.3,171.8l-21.5-22l0.7-7.2l-25.3-24.7l-6.2-0.3l-9-8.5l-9.3,9L116.5,240
		C116.5,240,118.2,204.5,142.3,171.8z"/>
	<path class="st1" d="M172.6,141.7l-22-21.5l-7.2,0.7l-24.7-25.3l-0.3-6.2l-8.5-9l9-9.3l121.8,44.7
		C240.8,115.9,205.4,117.6,172.6,141.7z"/>
	<path class="st1" d="M269.7,399.3c0,0,107.1,0.4,130.4-130l-1.1-2.1l-8.5-15.8l-6.4-0.4l0.4,10.9l-2.1,16.4c0,0-6.8,29.7-24.1,51.9
		c-17.3,22.2-34.4,37.4-63.4,47.6c0,0-16.7,6.9-28.4,6.6L269.7,399.3z"/>
	<line class="st2" x1="399.2" y1="268.1" x2="383.5" y2="265.9"/>
	<g>
		<path class="st3" d="M270,253.6l72.6,13.6l6.5-7.1l36.1,4.6c0,0-7.5,46.4-36.1,77.4c-28.6,31-66,41.5-84.6,41.3l-1.6-36.9l5.8-6.2
			l-12.2-65.8L270,253.6z"/>
		<path class="st4" d="M264.3,366.4c0,0,87.5-4,103.3-102.2"/>
	</g>
	<path class="st1" d="M345.4,182.5l6.6-16l-18.8-17.9l-13,7.8l5.6-16.1c-52.2-35.7-124-30.4-170.4,16
		c-45.9,45.9-51.6,116.6-17.1,168.7l18.3-6.3l-6.5,16.1l18.9,17.8l13-7.9l-6.1,18.1c52.1,34.8,123.2,29.2,169.2-16.8
		c45.9-45.9,51.6-116.9,17-169L345.4,182.5z"/>
	<g>
		<circle class="st5" cx="275.8" cy="307.8" r="9.2"/>
		<circle class="st5" cx="284.9" cy="334.1" r="9.2"/>
		<circle class="st5" cx="295" cy="295.4" r="9.2"/>
		<circle class="st5" cx="306.7" cy="275.4" r="9.2"/>
		<circle class="st5" cx="315.3" cy="314.9" r="9.2"/>
		<circle class="st5" cx="334.4" cy="285.7" r="9.2"/>
	</g>
	<g>
		<circle class="st6" cx="253" cy="252" r="34.3"/>
		<circle class="st6" cx="253.2" cy="251.8" r="34.3"/>
	</g>
	<polygon class="st5" points="240.3,87.6 251.1,111.3 254.5,108.2 255.2,98.3 244.9,82.5 	"/>
	<path class="st6" d="M274.4,87.7l-1.5,2.5c-0.1,0.2-0.4,0.3-0.6,0.2L251,77.5c-0.2-0.1-0.3-0.4-0.2-0.6l1.5-2.5
		c0.1-0.2,0.4-0.3,0.6-0.2l21.2,12.9C274.4,87.2,274.5,87.5,274.4,87.7z"/>
	<path class="st6" d="M258.2,73.1l-17.6,17.6c-0.3,0.3-0.7,0.3-1,0l-2.1-2.1c-0.3-0.3-0.3-0.7,0-1L255.1,70c0.3-0.3,0.7-0.3,1,0
		l2.1,2.1C258.5,72.4,258.5,72.8,258.2,73.1z"/>
	<path class="st5" d="M248.3,204.4c0,0,10.3-3.2,24.3,4l30.8-97.9L278.5,85l-5.4,5.4l-9.3-0.8l-8.5,7.3l0.6,10.2l-4.8,4.2l8.7,8.2
		L248.3,204.4z"/>
	<polygon class="st7" points="204.6,179.9 167.7,149.1 169.2,147.6 150,128.4 129.1,149.4 148.3,168.5 149.7,167.1 180.9,203.6
		178.6,205.9 210.3,237.5 239.6,208.2 208,176.5 	"/>
	<path class="st5" d="M320.5,158.3l24.1,24.8c0,0-52.7,52.9-53.3,52.2s-20.5-21.6-20.5-21.6L320.5,158.3z"/>
	<path class="st5" d="M158.5,318.3l24.8,24.1c0,0,52.9-52.7,52.2-53.3c-0.7-0.7-21.6-20.5-21.6-20.5L158.5,318.3z"/>

		<ellipse transform="matrix(0.7071 -0.7071 0.7071 0.7071 -124.6693 175.8276)" class="st6" cx="149.9" cy="238.4" rx="19" ry="10"/>
	<g>
		<circle class="st5" cx="109.7" cy="163.5" r="9.2"/>
		<circle class="st5" cx="117.2" cy="198.3" r="9.2"/>
		<circle class="st5" cx="163.7" cy="107.4" r="9.2"/>
		<circle class="st5" cx="198.3" cy="117.2" r="9.2"/>
	</g>

		<ellipse transform="matrix(0.7071 -0.7071 0.7071 0.7071 -124.9888 175.6677)" class="st8" cx="149.6" cy="238.7" rx="5.9" ry="4.4"/>
</g>
<line class="st9" x1="251.9" y1="-0.7" x2="251.9" y2="513.2"/>
<line class="st9" x1="0.1" y1="251.2" x2="511.6" y2="251.2"/>
	<animateTransform attributeName="transform"
					  attributeType="XML"
					  type="rotate"
					  from="0 0 0"
					  to= "135 0 0"
					  dur="3s"
					  repeatCount="indefinite" />
</svg>
