<?xml version="1.0" encoding="utf-8"?>
<!-- Generator: Adobe Illustrator 23.0.1, SVG Export Plug-In . SVG Version: 6.00 Build 0)  -->
<svg version="1.1" id="Layer_1" xmlns="http://www.w3.org/2000/svg" xmlns:xlink="http://www.w3.org/1999/xlink" x="0px" y="0px"
	 viewBox="0 0 179.2 93.4" style="enable-background:new 0 0 179.2 93.4;" xml:space="preserve">
<style type="text/css">
	.st0{fill:#C52026;stroke:#FFFFFF;stroke-width:3;stroke-miterlimit:10;}
	.st1{fill:#070808;stroke:#FFFFFF;stroke-miterlimit:10;}
	.st2{fill:#FFFFFF;}
	.st3{fill:#C52026;stroke:#FFFFFF;stroke-miterlimit:10;}
</style>
<g>
	<g>
		<path class="st0" d="M29.5,16c0,0-8.5-6.2-10.2-13.2c0,0-3-0.8-5.2,1.1S2.8,9.3,1.6,27.6S11.5,62,49.5,58c0,0,24.5-3.9,56.1,13.2
			s82.3,21.6,70.4-1.6c0,0-7.4-10.8-31.4-14.1c0,0-42.7-33-54.7-45.9c0,0-18.4-21-17.7,4.6C72.2,14.2,47.9,23.3,29.5,16z"/>
		<circle class="st1" cx="87.4" cy="19.2" r="4.9"/>
		<circle class="st1" cx="117.3" cy="45.2" r="4.9"/>
		<circle class="st1" cx="97.4" cy="27.7" r="4.9"/>
		<circle class="st1" cx="107.5" cy="36.7" r="4.9"/>
		<polygon class="st2" points="89.3,14.4 92.5,12.5 94.1,13.8 92.3,17.5 		"/>
		<polygon class="st2" points="98.8,22.7 102,20.8 103.6,22.1 101.8,25.8 		"/>
		<polygon class="st2" points="108.7,31.7 111.9,29.9 113.5,31.1 111.7,34.9 		"/>
		<polygon class="st2" points="119.1,40.1 122.4,38.3 124,39.5 122.2,43.3 		"/>
		<path class="st2" d="M139,51.2c0,0-4.7,14-37.7,18l4.3,2c0,0,28.3-3.8,35.7-18.6L139,51.2z"/>
		<path class="st2" d="M73.3,11.4c0,0,10.4-0.2,14.6-4.1l3,3.4l-17.7,4.6V11.4z"/>
		<path class="st2" d="M11.8,6.3c0,0,7.7,9.6,19.5,11.2c0,0-14.4-8.8-17.4-13.8L11.8,6.3z"/>
		<path class="st2" d="M53.1,18.3c-2,3.1-12.4,20.9-31.5,37.2l2.1,1.2c0,0,21.7-18,32.4-38.4L53.1,18.3z"/>
		<path class="st2" d="M62.6,17.1C62.3,21.2,47.2,41,30.2,58.3l2.1,1.2c0,0,23.6-23.1,34.3-43.5L62.6,17.1z"/>
		<path d="M6,51.6l0.5,10.2l8,3.5l4-3.2l5.6,2.1l0.5,3.8l8.3,2.1l5.4-7.8C38.4,62.3,17.8,61.9,6,51.6z"/>
		<path d="M114.4,78.8l-0.1,6.7l7.9,2.8l2.5-3.6l5.5,1.2l1.1,4.4l8.2,3.1l4.6-6C144,87.4,119.7,82.6,114.4,78.8z"/>
		<path d="M148.7,88.2l1.9,4.8l6,0.3l1.5-2.9l4.2-0.1l1.3,2.5h5.9l1.6-5.9C171,86.8,160.1,89.2,148.7,88.2z"/>
	</g>
	<circle class="st3" cx="74.9" cy="40.9" r="14.1"/>
	<path class="st2" d="M88.8,43.3c0,0-15.8-5.1-27.8-0.3c0,0-0.3-1.1,0-3.9c0,0,14.9-4.9,28,0.7C88.9,39.8,89.2,41.3,88.8,43.3z"/>
	<path class="st2" d="M68.7,53.8c0,0,4-13.6,0.8-25.7c0,0,0.9-1.3,3.8-1.1c0,0,3,14.7-1.2,27.9C72,54.9,70.7,54.2,68.7,53.8z"/>
</g>
</svg>
