<?xml version="1.0" encoding="utf-8"?>
<!-- Generator: Adobe Illustrator 23.0.1, SVG Export Plug-In . SVG Version: 6.00 Build 0)  -->
<svg version="1.1" id="Layer_1" xmlns="http://www.w3.org/2000/svg" xmlns:xlink="http://www.w3.org/1999/xlink" x="0px" y="0px"
	 viewBox="0 0 179.2 93.4" style="enable-background:new 0 0 179.2 93.4;" xml:space="preserve">
<style type="text/css">
	.st0{fill:#4051A3;stroke:#FFFFFF;stroke-width:3;stroke-miterlimit:10;}
	.st1{fill:#070808;stroke:#FFFFFF;stroke-miterlimit:10;}
	.st2{fill:#FFFFFF;}
	.st3{fill:#4051A3;stroke:#E7E51A;stroke-miterlimit:10;}
	.st4{fill:#E7E514;}
</style>
<g>
	<g>
		<path class="st0" d="M149.8,16c0,0,8.5-6.2,10.2-13.2c0,0,3-0.8,5.2,1.1c2.1,1.9,11.3,5.4,12.5,23.8S167.7,62,129.8,58
			c0,0-24.5-3.9-56.1,13.2S-8.6,92.8,3.3,69.6c0,0,7.4-10.8,31.4-14.1c0,0,42.7-33,54.7-45.9c0,0,18.4-21,17.7,4.6
			C107.1,14.2,131.4,23.3,149.8,16z"/>
		<circle class="st1" cx="91.8" cy="19.2" r="4.9"/>
		<circle class="st1" cx="62" cy="45.2" r="4.9"/>
		<circle class="st1" cx="81.9" cy="27.7" r="4.9"/>
		<circle class="st1" cx="71.7" cy="36.7" r="4.9"/>
		<polygon class="st2" points="89.9,14.4 86.7,12.5 85.1,13.8 86.9,17.5 		"/>
		<polygon class="st2" points="80.4,22.7 77.2,20.8 75.6,22.1 77.4,25.8 		"/>
		<polygon class="st2" points="70.5,31.7 67.3,29.9 65.7,31.1 67.5,34.9 		"/>
		<polygon class="st2" points="60.1,40.1 56.9,38.3 55.3,39.5 57,43.3 		"/>
		<path class="st2" d="M40.3,51.2c0,0,4.7,14,37.7,18l-4.3,2c0,0-28.3-3.8-35.7-18.6L40.3,51.2z"/>
		<path class="st2" d="M105.9,11.4c0,0-10.4-0.2-14.6-4.1l-3,3.4l17.7,4.6V11.4z"/>
		<path class="st2" d="M167.5,6.3c0,0-7.7,9.6-19.5,11.2c0,0,14.4-8.8,17.4-13.8L167.5,6.3z"/>
		<path class="st2" d="M126.1,18.3c2,3.1,12.4,20.9,31.5,37.2l-2.1,1.2c0,0-21.7-18-32.4-38.4L126.1,18.3z"/>
		<path class="st2" d="M116.6,17.1c0.3,4.1,15.4,23.9,32.4,41.2l-2.1,1.2c0,0-23.6-23.1-34.3-43.5L116.6,17.1z"/>
		<path d="M173.3,51.6l-0.5,10.2l-8,3.5l-4-3.2l-5.6,2.1l-0.5,3.8l-8.3,2.1l-5.4-7.8C140.8,62.3,161.5,61.9,173.3,51.6z"/>
		<path d="M64.9,78.8l0.1,6.7l-7.9,2.8l-2.5-3.6l-5.5,1.2L48,90.3l-8.2,3.1l-4.6-6C35.2,87.4,59.5,82.6,64.9,78.8z"/>
		<path d="M30.6,88.2L28.7,93l-6,0.3l-1.5-2.9L17,90.2l-1.3,2.5H9.8l-1.6-5.9C8.2,86.8,19.2,89.2,30.6,88.2z"/>
	</g>
	<g>
		<circle class="st3" cx="102.5" cy="39.7" r="13.5"/>
		<path class="st4" d="M89.2,37.7c0,0,15.2,4.7,26.6-0.1c0,0,0.3,1,0.1,3.8c0,0-14.2,5-26.8-0.3C89.1,41.1,88.8,39.6,89.2,37.7z"/>
		<path class="st4" d="M107.6,27.3c0,0-4,13.5-0.7,25.1c0,0-0.5,0.5-3.4,0.7c0,0-3.1-13.7,0.8-26.5
			C104.2,26.6,105.7,26.9,107.6,27.3z"/>
	</g>
</g>
</svg>
