<?xml version="1.0" encoding="utf-8"?>
<!-- Generator: Adobe Illustrator 23.0.1, SVG Export Plug-In . SVG Version: 6.00 Build 0)  -->
<svg version="1.1" id="Layer_1" xmlns="http://www.w3.org/2000/svg" xmlns:xlink="http://www.w3.org/1999/xlink" x="0px" y="0px"
	 viewBox="0 0 117.4 146.9" style="enable-background:new 0 0 117.4 146.9;" xml:space="preserve">
<style type="text/css">
	.st0{fill:#F6B786;}
	.st1{fill:#010101;}
	.st2{fill:#F6B589;}
	.st3{fill:#9B725D;}
	.st4{fill:#FFFFFF;stroke:#010101;stroke-width:0.25;stroke-miterlimit:10;}
	.st5{fill:#232323;}
	.st6{fill:none;stroke:#FFFFFF;stroke-width:0.25;stroke-miterlimit:10;}
	.st7{fill:#FFFFFF;}
</style>
<g>
	<g>
		<path class="st0" d="M103.3,88c0,0,9.2-15-3.7-23.1c0,0-5.7-4.1-15.5-1.1l0.3-5.4c0,0,15.4-5.7,24.1,7s-1,26-1.7,25.9L103.3,88z"
			/>
		<path class="st1" d="M112.7,77.4c0,0-2.8-2.6-7.4-1.6c0,0,2.9,4-2.5,11.9c-5.3,8,5.1,3.8,5.1,3.8S111.8,88.3,112.7,77.4z"/>
	</g>
	<g>
		<path class="st0" d="M23.5,46.6c0,0-8.5,15.4,4.9,22.9c0,0,5.9,3.8,15.6,0.3v5.4c0,0-15.1,6.5-24.4-5.8s-0.3-26,0.3-25.9
			L23.5,46.6z"/>
		<path class="st1" d="M14.6,57.7c0,0,3,2.5,7.5,1.2c0,0-3-3.8,1.9-12s-5.3-3.6-5.3-3.6S15,46.8,14.6,57.7z"/>
	</g>
	<path class="st2" d="M58.1,12.5c0,0-20-9.5-15.2,77.9c0,0-0.7,18,16.3,20.3c17.3,2.4,24.9-10.8,25.1-23c0,0-0.2-45.1,5.8-69.1
		L58.1,12.5z"/>
	<path class="st3" d="M83,26.1c0,0-4.1,12.7,3.6,15l3-13L83,26.1z"/>
	<g>
		<ellipse class="st4" cx="76.1" cy="3.2" rx="3.5" ry="3"/>
		<path class="st5" d="M89,33c0,0-59.2-13.2-59.7-26.4c0,0,10.7,8,21.7,6.1c0,0,6.8-13.6,17.8-11.5S95.7,6.9,89,33z"/>
		<path class="st6" d="M53,9.8c0,0,2.6,1.7,6.9,1.8l4-5.1c0,0-5.4-0.3-6.1-2C57.7,4.6,54,7.7,53,9.8z"/>
	</g>
	<polygon class="st7" points="42.3,54.9 85.7,57.6 85.8,88.9 39.9,87.8 	"/>
	<g>
		<polygon class="st1" points="49.8,87.9 47.1,87.9 47.2,55.3 49.9,55.4 		"/>
		<polygon class="st1" points="58.8,88.2 56.1,88.2 56,55.8 58.8,56 		"/>
		<polygon class="st1" points="68.6,89.2 65.9,89.2 65.9,56.4 68.6,56.6 		"/>
		<polygon class="st1" points="76.7,89.7 74,89.7 74,56.9 76.7,57.1 		"/>
	</g>
	<path class="st0" d="M43.8,105.3c0,0-17.4,1.6-37,33c0,0-3.9,1.6-5.1-9.7c0,0,1.4-3.5,3.4-0.6c0,0,0.2,3.8,1.1,4.4
		c0,0,16.9-28.6,36.5-31.3L43.8,105.3z"/>
	<path class="st1" d="M15.8,116.4c0,0,6.2,0.2,5.5,4.9L8,139.2c0,0-7.6,2.9-8-15.3c0,0,2.8-7.5,6.6-0.5c0,0-2.2,6,0.6,3.8
		C8,126.6,15.8,116.4,15.8,116.4z"/>
	<path class="st0" d="M73.9,111.3c0,0,4,27.9,35.9,27.3l0.6-3.2c0,0-27.5,1.7-33.5-26.9L73.9,111.3z"/>
	<path class="st1" d="M92.9,138.6c0,0-3.6-5.1,0.5-7.4l22.3-0.4c0,0,6.9,4.2-7.2,15.7c0,0-7.6,2.4-4.4-4.9c0,0,6.1-1.9,2.7-2.8
		C105.8,138.5,92.9,138.6,92.9,138.6z"/>
	<path class="st1" d="M31.3,103.8c0,0,4.2,1.9,5.6,8.5c0,0,7-5.8,10-4.9c0,0,6.9,11.1,24.7,5.3c0,0,1.7,7,5.4,10.8
		c0,0,4.6-5.5,8-5.1c0,0-5.6-4-6.6-10.8c0,0,7.6-5.3,7.5-20L39.8,87c0,0-0.3,7,1.9,12.2C41.7,99.2,36.9,100.2,31.3,103.8z"/>
	<polygon class="st1" points="53.7,47.7 53.5,43.3 61.3,47.4 	"/>
	<path class="st1" d="M54.2,40.4h-1.6c-0.5,0-0.8-0.4-0.8-0.8v-6.7c0-0.5,0.4-0.8,0.8-0.8h1.6c0.5,0,0.8,0.4,0.8,0.8v6.7
		C55.1,40,54.7,40.4,54.2,40.4z"/>
	<path class="st1" d="M59.3,40.3h-1.6c-0.5,0-0.8-0.4-0.8-0.8v-6.7c0-0.5,0.4-0.8,0.8-0.8h1.6c0.5,0,0.8,0.4,0.8,0.8v6.7
		C60.1,40,59.8,40.3,59.3,40.3z"/>
	<path class="st7" d="M41.5,68.3c0,0-4.9,3.8-10,0.5c0,0-2.9,5.1-0.9,8.9c0,0,7.2,2.2,12.3,0L41.5,68.3z"/>
	<path class="st7" d="M84.3,65.5c0,0,4.8-3.9,10-0.6c0,0,2.9-5.1,0.8-8.9c0,0-10.2-4.6-15,1.8L84.3,65.5z"/>
</g>
</svg>
