<?xml version="1.0" encoding="utf-8"?>
<!-- Generator: Adobe Illustrator 23.0.1, SVG Export Plug-In . SVG Version: 6.00 Build 0)  -->
<svg version="1.1" id="Layer_1" xmlns="http://www.w3.org/2000/svg" xmlns:xlink="http://www.w3.org/1999/xlink" x="0px" y="0px"
	 viewBox="0 0 1200 800" style="enable-background:new 0 0 1200 800;" xml:space="preserve">
<style type="text/css">
	.st0{fill:#5A7C38;}
	.st1{fill:#789B45;}
	.st2{fill:none;stroke:#FFFFFF;stroke-width:5;stroke-miterlimit:10;}
	.st3{display:none;}
	.st4{display:inline;fill:#FFFFFF;stroke:#000000;stroke-width:2;stroke-miterlimit:10;}
	.st5{display:inline;}
	.st6{display:inline;fill:none;stroke:#000000;stroke-miterlimit:10;}
	.st7{display:inline;fill:#C52026;stroke:#FFFFFF;stroke-width:3;stroke-miterlimit:10;}
	.st8{display:inline;fill:#FFFFFF;}
	.st9{display:inline;fill:#4051A3;stroke:#E7E51A;stroke-width:3;stroke-miterlimit:10;}
	.st10{display:inline;fill:#E7E514;}
</style>
<g id="grass">
	<rect x="-8.8" y="-10" class="st0" width="1216.3" height="826.1"/>
	<rect x="59" y="-10" class="st1" width="67.3" height="826.1"/>
	<rect x="193.7" y="-9.9" class="st1" width="67.3" height="826.1"/>
	<rect x="328.8" y="-9.5" class="st1" width="67.3" height="826.1"/>
	<rect x="463.5" y="-9.5" class="st1" width="67.3" height="826.1"/>
	<rect x="598.8" y="-9.9" class="st1" width="67.3" height="826.1"/>
	<rect x="733.5" y="-9.9" class="st1" width="67.3" height="826.1"/>
	<rect x="868.5" y="-9.9" class="st1" width="67.3" height="826.1"/>
	<rect x="1003.2" y="-9.9" class="st1" width="67.3" height="826.1"/>
	<rect x="1139.1" y="-9.9" class="st1" width="67.3" height="826.1"/>
</g>
<g id="Streger">
	<rect x="45.5" y="49.2" class="st2" width="1103.9" height="714.3"/>
	<path class="st2" d="M64.4,46.9c0,0,0.9,17.4-18,21.2"/>
	<path class="st2" d="M1150.8,70.2c0,0-17.3-1.5-18.5-20.8"/>
	<path class="st2" d="M1131.3,763.1c0,0,0.1-17.4,19.2-20.1"/>
	<path class="st2" d="M46.5,743.5c0,0,17.4-1.1,21.4,17.8"/>
	<rect x="19.6" y="366" class="st2" width="25.9" height="87.8"/>
	<rect x="46.2" y="301" class="st2" width="57.7" height="211.9"/>
	<rect x="47.3" y="187.2" class="st2" width="163.2" height="440.1"/>
	
		<rect x="1149.9" y="366" transform="matrix(-1 -4.488644e-11 4.488644e-11 -1 2325.6128 819.7156)" class="st2" width="25.9" height="87.8"/>
	
		<rect x="1091.6" y="301.4" transform="matrix(-1 -4.462265e-11 4.462265e-11 -1 2240.9844 814.7676)" class="st2" width="57.7" height="211.9"/>
	
		<rect x="986" y="186.4" transform="matrix(-1 -4.499480e-11 4.499480e-11 -1 2135.3325 813.0045)" class="st2" width="163.2" height="440.1"/>
	<line class="st2" x1="598.7" y1="50.4" x2="598.7" y2="764.7"/>
	<circle class="st2" cx="601.7" cy="409.3" r="106.4"/>
	<path class="st2" d="M985.1,332.5c-25.2,18.4-41.6,48.1-41.6,81.7c0,33.6,16.4,63.3,41.6,81.7V332.5z"/>
	<path class="st2" d="M210.5,328.2c25.2,18.4,41.6,48.1,41.6,81.7c0,33.6-16.4,63.3-41.6,81.7V328.2z"/>
</g>
<g id="Fodbold" class="st3">
	<circle class="st4" cx="693.2" cy="240.9" r="34"/>
	<path class="st5" d="M683.3,208.6l-6.7,8.4l7.8,7.5l13.9-4.2l0.4-9.8l-7.8-3.4C690.9,207.1,685.6,207.5,683.3,208.6z"/>
	<path class="st5" d="M663.8,224.2c0,0-1.8,6.7-1.8,13.7l-2.8,1.8C659.2,239.7,659.6,231.2,663.8,224.2z"/>
	<path class="st5" d="M681.3,239.2c0.3,0.2,10.7,9.5,10.7,9.5l-4.3,12.3c0,0-9,0.5-14.1-1.4c0,0-3.6-10.6-3.6-14.4L681.3,239.2z"/>
	<path class="st5" d="M709.3,230.7l-3.2,13.8l9,8.1c0,0,7.2-3.4,9.1-8.6c0,0-1.3-9.8-3.6-14.1L709.3,230.7z"/>
	<path class="st6" d="M664.3,223.5c0,0,6.8-5,13.5-6.9"/>
	<path class="st6" d="M697.1,210.8c0,0,4.1-1.6,8.2-1.2"/>
	<path class="st6" d="M680.9,242.1c0,0,2.1-16.2,4.3-21.4"/>
	<path class="st6" d="M695.4,218.2c0,0,10.5,7.5,14.8,13.6"/>
	<path class="st6" d="M721.2,221.9c0,0,0.6,4.8-1,10.3"/>
	<path class="st6" d="M726.9,245.8c0,0-2.1-2.1-4.6-2.6"/>
	<path class="st6" d="M707.4,243.6c0,0-9.1,4.3-17.2,5"/>
	<path class="st6" d="M660.8,236.3c0,0,3.2,6.1,9.7,9.4"/>
	<line class="st6" x1="674.3" y1="258.5" x2="669.1" y2="265"/>
	<path class="st6" d="M686.2,259.3c0,0,5.9,8.2,11.6,10.9"/>
	<path class="st6" d="M714.8,250.6c0,0,2.3,6.1-4.3,15.8"/>
	<path class="st5" d="M694,274.9l3.2-5.4c0,0,7.9,0.2,13.7-3.9l2.7,2.3C713.6,267.9,706.8,274.5,694,274.9z"/>
</g>
<g id="Danmark" class="st3">
	<circle class="st7" cx="129.8" cy="396.2" r="68.1"/>
	<path class="st8" d="M196.8,407.5c0,0-76.3-24.8-134.4-1.4c0,0-1.3-5.2-0.2-19.1c0,0,72.1-23.9,135.3,3.5
		C197.4,390.6,199,397.9,196.8,407.5z"/>
	<path class="st8" d="M99.7,458.2c0,0,19.2-65.8,3.6-124.4c0,0,4.4-6.4,18.2-5.1c0,0,14.6,71.1-5.9,135.2
		C115.7,463.9,109.4,460.6,99.7,458.2z"/>
</g>
<g id="Sverige" class="st3">
	<circle class="st9" cx="1064.6" cy="398.6" r="68.1"/>
	<path class="st10" d="M997.4,388.3c0,0,76.6,23.6,134.4-0.7c0,0,1.3,5.2,0.5,19.1c0,0-71.7,25.1-135.3-1.4
		C997.1,405.3,995.3,398,997.4,388.3z"/>
	<path class="st10" d="M1090.6,335.9c0,0-20.2,68.4-3.7,126.7c0,0-2.4,2.4-17.3,3.7c0,0-15.5-69.5,3.9-133.9
		C1073.5,332.4,1080.9,333.7,1090.6,335.9z"/>
</g>
</svg>
