<?xml version="1.0" encoding="utf-8"?>
<!-- Generator: Adobe Illustrator 23.0.1, SVG Export Plug-In . SVG Version: 6.00 Build 0)  -->
<svg version="1.1" id="Layer_1" xmlns="http://www.w3.org/2000/svg" xmlns:xlink="http://www.w3.org/1999/xlink" x="0px" y="0px"
	 viewBox="0 0 1200 800" style="enable-background:new 0 0 1200 800;" xml:space="preserve">
<style type="text/css">
	.st0{fill:#5A7C38;}
	.st1{fill:#789B45;}
	.st2{fill:none;stroke:#FFFFFF;stroke-width:5;stroke-miterlimit:10;}
	.st3{fill:#FFFFFF;stroke:#000000;stroke-width:2;stroke-miterlimit:10;}
	.st4{fill:none;stroke:#000000;stroke-miterlimit:10;}
	.st5{fill:#C52026;stroke:#FFFFFF;stroke-width:3;stroke-miterlimit:10;}
	.st6{fill:#FFFFFF;}
	.st7{fill:#4051A3;stroke:#E7E51A;stroke-width:3;stroke-miterlimit:10;}
	.st8{fill:#E7E514;}
	.st9{fill:#070808;stroke:#FFFFFF;stroke-miterlimit:10;}
	.st10{fill:#C52026;stroke:#FFFFFF;stroke-miterlimit:10;}
	.st11{fill:#4051A3;stroke:#FFFFFF;stroke-width:3;stroke-miterlimit:10;}
	.st12{fill:#4051A3;stroke:#E7E51A;stroke-miterlimit:10;}
</style>
<g id="grass">
	<rect x="-8.8" y="-10" class="st0" width="1216.3" height="826.1"/>
	<rect x="59" y="-10" class="st1" width="67.3" height="826.1"/>
	<rect x="193.7" y="-9.9" class="st1" width="67.3" height="826.1"/>
	<rect x="328.8" y="-9.5" class="st1" width="67.3" height="826.1"/>
	<rect x="463.5" y="-9.5" class="st1" width="67.3" height="826.1"/>
	<rect x="598.8" y="-9.9" class="st1" width="67.3" height="826.1"/>
	<rect x="733.5" y="-9.9" class="st1" width="67.3" height="826.1"/>
	<rect x="868.5" y="-9.9" class="st1" width="67.3" height="826.1"/>
	<rect x="1003.2" y="-9.9" class="st1" width="67.3" height="826.1"/>
	<rect x="1139.1" y="-9.9" class="st1" width="67.3" height="826.1"/>
</g>
<g id="Streger">
	<rect x="45.5" y="49.2" class="st2" width="1103.9" height="714.3"/>
	<path class="st2" d="M64.4,46.9c0,0,0.9,17.4-18,21.2"/>
	<path class="st2" d="M1150.8,70.2c0,0-17.3-1.5-18.5-20.8"/>
	<path class="st2" d="M1131.3,763.1c0,0,0.1-17.4,19.2-20.1"/>
	<path class="st2" d="M46.5,743.5c0,0,17.4-1.1,21.4,17.8"/>
	<rect x="19.6" y="366" class="st2" width="25.9" height="87.8"/>
	<rect x="46.2" y="301" class="st2" width="57.7" height="211.9"/>
	<rect x="47.3" y="187.2" class="st2" width="163.2" height="440.1"/>
	
		<rect x="1149.9" y="366" transform="matrix(-1 -4.488644e-11 4.488644e-11 -1 2325.6128 819.7156)" class="st2" width="25.9" height="87.8"/>
	
		<rect x="1091.6" y="301.4" transform="matrix(-1 -4.462265e-11 4.462265e-11 -1 2240.9844 814.7676)" class="st2" width="57.7" height="211.9"/>
	
		<rect x="986" y="186.4" transform="matrix(-1 -4.499480e-11 4.499480e-11 -1 2135.3325 813.0045)" class="st2" width="163.2" height="440.1"/>
	<line class="st2" x1="598.7" y1="50.4" x2="598.7" y2="764.7"/>
	<circle class="st2" cx="601.7" cy="409.3" r="106.4"/>
	<path class="st2" d="M985.1,332.5c-25.2,18.4-41.6,48.1-41.6,81.7c0,33.6,16.4,63.3,41.6,81.7V332.5z"/>
	<path class="st2" d="M210.5,328.2c25.2,18.4,41.6,48.1,41.6,81.7c0,33.6-16.4,63.3-41.6,81.7V328.2z"/>
</g>
<g id="Fodbold">
	<circle class="st3" cx="693.2" cy="240.9" r="34"/>
	<path d="M683.3,208.6l-6.7,8.4l7.8,7.5l13.9-4.2l0.4-9.8l-7.8-3.4C690.9,207.1,685.6,207.5,683.3,208.6z"/>
	<path d="M663.8,224.2c0,0-1.8,6.7-1.8,13.7l-2.8,1.8C659.2,239.7,659.6,231.2,663.8,224.2z"/>
	<path d="M681.3,239.2c0.3,0.2,10.7,9.5,10.7,9.5l-4.3,12.3c0,0-9,0.5-14.1-1.4c0,0-3.6-10.6-3.6-14.4L681.3,239.2z"/>
	<path d="M709.3,230.7l-3.2,13.8l9,8.1c0,0,7.2-3.4,9.1-8.6c0,0-1.3-9.8-3.6-14.1L709.3,230.7z"/>
	<path class="st4" d="M664.3,223.5c0,0,6.8-5,13.5-6.9"/>
	<path class="st4" d="M697.1,210.8c0,0,4.1-1.6,8.2-1.2"/>
	<path class="st4" d="M680.9,242.1c0,0,2.1-16.2,4.3-21.4"/>
	<path class="st4" d="M695.4,218.2c0,0,10.5,7.5,14.8,13.6"/>
	<path class="st4" d="M721.2,221.9c0,0,0.6,4.8-1,10.3"/>
	<path class="st4" d="M726.9,245.8c0,0-2.1-2.1-4.6-2.6"/>
	<path class="st4" d="M707.4,243.6c0,0-9.1,4.3-17.2,5"/>
	<path class="st4" d="M660.8,236.3c0,0,3.2,6.1,9.7,9.4"/>
	<line class="st4" x1="674.3" y1="258.5" x2="669.1" y2="265"/>
	<path class="st4" d="M686.2,259.3c0,0,5.9,8.2,11.6,10.9"/>
	<path class="st4" d="M714.8,250.6c0,0,2.3,6.1-4.3,15.8"/>
	<path d="M694,274.9l3.2-5.4c0,0,7.9,0.2,13.7-3.9l2.7,2.3C713.6,267.9,706.8,274.5,694,274.9z"/>
</g>
<g id="Danmark">
	<circle class="st5" cx="129.8" cy="396.2" r="68.1"/>
	<path class="st6" d="M196.8,407.5c0,0-76.3-24.8-134.4-1.4c0,0-1.3-5.2-0.2-19.1c0,0,72.1-23.9,135.3,3.5
		C197.4,390.6,199,397.9,196.8,407.5z"/>
	<path class="st6" d="M99.7,458.2c0,0,19.2-65.8,3.6-124.4c0,0,4.4-6.4,18.2-5.1c0,0,14.6,71.1-5.9,135.2
		C115.7,463.9,109.4,460.6,99.7,458.2z"/>
</g>
<g id="Sverige">
	<circle class="st7" cx="1064.6" cy="398.6" r="68.1"/>
	<path class="st8" d="M997.4,388.3c0,0,76.6,23.6,134.4-0.7c0,0,1.3,5.2,0.5,19.1c0,0-71.7,25.1-135.3-1.4
		C997.1,405.3,995.3,398,997.4,388.3z"/>
	<path class="st8" d="M1090.6,335.9c0,0-20.2,68.4-3.7,126.7c0,0-2.4,2.4-17.3,3.7c0,0-15.5-69.5,3.9-133.9
		C1073.5,332.4,1080.9,333.7,1090.6,335.9z"/>
</g>
<g>
	<g>
		<path class="st5" d="M110.6,524.1c0,0-8.5-6.2-10.2-13.2c0,0-3-0.8-5.2,1.1s-11.3,5.4-12.5,23.8c-1.3,18.3,9.9,34.4,47.9,30.4
			c0,0,24.5-3.9,56.1,13.2c31.6,17.2,82.3,21.6,70.4-1.6c0,0-7.4-10.8-31.4-14.1c0,0-42.7-33-54.7-45.9c0,0-18.4-21-17.7,4.6
			C153.3,522.4,129,531.5,110.6,524.1z"/>
		<circle class="st9" cx="168.5" cy="527.3" r="4.9"/>
		<circle class="st9" cx="198.4" cy="553.3" r="4.9"/>
		<circle class="st9" cx="178.4" cy="535.8" r="4.9"/>
		<circle class="st9" cx="188.6" cy="544.8" r="4.9"/>
		<polygon class="st6" points="170.4,522.5 173.6,520.7 175.2,521.9 173.4,525.7 		"/>
		<polygon class="st6" points="179.9,530.8 183.1,529 184.7,530.2 182.9,534 		"/>
		<polygon class="st6" points="189.8,539.9 193,538 194.6,539.2 192.8,543 		"/>
		<polygon class="st6" points="200.2,548.3 203.5,546.4 205.1,547.6 203.3,551.4 		"/>
		<path class="st6" d="M220.1,559.3c0,0-4.7,14-37.7,18l4.3,2c0,0,28.3-3.8,35.7-18.6L220.1,559.3z"/>
		<path class="st6" d="M154.4,519.5c0,0,10.4-0.2,14.6-4.1l3,3.4l-17.7,4.6V519.5z"/>
		<path class="st6" d="M92.9,514.5c0,0,7.7,9.6,19.5,11.2c0,0-14.4-8.8-17.4-13.8L92.9,514.5z"/>
		<path class="st6" d="M134.2,526.5c-2,3.1-12.4,20.9-31.5,37.2l2.1,1.2c0,0,21.7-18,32.4-38.4L134.2,526.5z"/>
		<path class="st6" d="M143.7,525.2c-0.3,4.1-15.4,23.9-32.4,41.2l2.1,1.2c0,0,23.6-23.1,34.3-43.5L143.7,525.2z"/>
		<path d="M87.1,559.7l0.5,10.2l8,3.5l4-3.2l5.6,2.1l0.5,3.8l8.3,2.1l5.4-7.8C119.5,570.4,98.8,570,87.1,559.7z"/>
		<path d="M195.5,586.9l-0.1,6.7l7.9,2.8l2.5-3.6l5.5,1.2l1.1,4.4l8.2,3.1l4.6-6C225.1,595.5,200.8,590.7,195.5,586.9z"/>
		<path d="M229.8,596.3l1.9,4.8l6,0.3l1.5-2.9l4.2-0.1l1.3,2.5h5.9l1.6-5.9C252.1,594.9,241.1,597.3,229.8,596.3z"/>
	</g>
	<circle class="st10" cx="156" cy="549" r="14.1"/>
	<path class="st6" d="M169.9,551.4c0,0-15.8-5.1-27.8-0.3c0,0-0.3-1.1,0-3.9c0,0,14.9-4.9,28,0.7C170,547.9,170.3,549.4,169.9,551.4
		z"/>
	<path class="st6" d="M149.8,561.9c0,0,4-13.6,0.8-25.7c0,0,0.9-1.3,3.8-1.1c0,0,3,14.7-1.2,27.9C153.1,563,151.8,562.4,149.8,561.9
		z"/>
</g>
<g>
	<g>
		<path class="st11" d="M1105.5,529.9c0,0,8.5-6.2,10.2-13.2c0,0,3-0.8,5.2,1.1c2.1,1.9,11.3,5.4,12.5,23.8
			c1.3,18.3-9.9,34.4-47.9,30.4c0,0-24.5-3.9-56.1,13.2c-31.6,17.2-82.3,21.6-70.4-1.6c0,0,7.4-10.8,31.4-14.1
			c0,0,42.7-33,54.7-45.9c0,0,18.4-21,17.7,4.6C1062.8,528.1,1087.1,537.2,1105.5,529.9z"/>
		<circle class="st9" cx="1047.5" cy="533" r="4.9"/>
		<circle class="st9" cx="1017.7" cy="559" r="4.9"/>
		<circle class="st9" cx="1037.6" cy="541.6" r="4.9"/>
		<circle class="st9" cx="1027.4" cy="550.5" r="4.9"/>
		<polygon class="st6" points="1045.7,528.2 1042.4,526.4 1040.8,527.6 1042.6,531.4 		"/>
		<polygon class="st6" points="1036.2,536.6 1033,534.7 1031.4,535.9 1033.2,539.7 		"/>
		<polygon class="st6" points="1026.3,545.6 1023.1,543.7 1021.5,545 1023.2,548.7 		"/>
		<polygon class="st6" points="1015.8,554 1012.6,552.1 1011,553.3 1012.8,557.1 		"/>
		<path class="st6" d="M996,565.1c0,0,4.7,14,37.7,18l-4.3,2c0,0-28.3-3.8-35.7-18.6L996,565.1z"/>
		<path class="st6" d="M1061.7,525.2c0,0-10.4-0.2-14.6-4.1l-3,3.4l17.7,4.6V525.2z"/>
		<path class="st6" d="M1123.2,520.2c0,0-7.7,9.6-19.5,11.2c0,0,14.4-8.8,17.4-13.8L1123.2,520.2z"/>
		<path class="st6" d="M1081.8,532.2c2,3.1,12.4,20.9,31.5,37.2l-2.1,1.2c0,0-21.7-18-32.4-38.4L1081.8,532.2z"/>
		<path class="st6" d="M1072.4,530.9c0.3,4.1,15.4,23.9,32.4,41.2l-2.1,1.2c0,0-23.6-23.1-34.3-43.5L1072.4,530.9z"/>
		<path d="M1129,565.4l-0.5,10.2l-8,3.5l-4-3.2l-5.6,2.1l-0.5,3.8l-8.3,2.1l-5.4-7.8C1096.6,576.1,1117.2,575.7,1129,565.4z"/>
		<path d="M1020.6,592.6l0.1,6.7l-7.9,2.8l-2.5-3.6l-5.5,1.2l-1.1,4.4l-8.2,3.1l-4.6-6C991,601.2,1015.2,596.4,1020.6,592.6z"/>
		<path d="M986.3,602l-1.9,4.8l-6,0.3l-1.5-2.9l-4.2-0.1l-1.3,2.5h-5.9l-1.6-5.9C963.9,600.6,974.9,603,986.3,602z"/>
	</g>
	<g>
		<circle class="st12" cx="1058.2" cy="553.6" r="13.5"/>
		<path class="st8" d="M1044.9,551.5c0,0,15.2,4.7,26.6-0.1c0,0,0.3,1,0.1,3.8c0,0-14.2,5-26.8-0.3
			C1044.9,554.9,1044.5,553.5,1044.9,551.5z"/>
		<path class="st8" d="M1063.4,541.2c0,0-4,13.5-0.7,25.1c0,0-0.5,0.5-3.4,0.7c0,0-3.1-13.7,0.8-26.5
			C1060,540.5,1061.5,540.7,1063.4,541.2z"/>
	</g>
</g>
</svg>
