<?xml version="1.0" encoding="utf-8"?>
<!-- Generator: Adobe Illustrator 23.0.1, SVG Export Plug-In . SVG Version: 6.00 Build 0)  -->
<svg version="1.1" id="Layer_1" xmlns="http://www.w3.org/2000/svg" xmlns:xlink="http://www.w3.org/1999/xlink" x="0px" y="0px"
	 viewBox="0 0 1200 800" style="enable-background:new 0 0 1200 800;" xml:space="preserve">
<style type="text/css">
	.st0{fill:#5A7C38;}
	.st1{fill:#789B45;}
	.st2{fill:none;stroke:#FFFFFF;stroke-width:5;stroke-miterlimit:10;}
	.st3{fill:#FFFFFF;stroke:#000000;stroke-width:2;stroke-miterlimit:10;}
	.st4{fill:none;stroke:#000000;stroke-miterlimit:10;}
	.st5{fill:#C52026;stroke:#FFFFFF;stroke-width:3;stroke-miterlimit:10;}
	.st6{fill:#FFFFFF;}
	.st7{fill:#4051A3;stroke:#E7E51A;stroke-width:3;stroke-miterlimit:10;}
	.st8{fill:#E7E514;}
	.st9{fill:#070808;stroke:#FFFFFF;stroke-miterlimit:10;}
	.st10{fill:#C52026;stroke:#FFFFFF;stroke-miterlimit:10;}
	.st11{fill:#4051A3;stroke:#FFFFFF;stroke-width:3;stroke-miterlimit:10;}
	.st12{fill:#4051A3;stroke:#E7E51A;stroke-miterlimit:10;}
	.st13{fill:#F6B786;}
	.st14{fill:#010101;}
	.st15{fill:#F6B589;}
	.st16{fill:#9B725D;}
	.st17{fill:#FFFFFF;stroke:#010101;stroke-width:0.25;stroke-miterlimit:10;}
	.st18{fill:#232323;}
	.st19{fill:none;stroke:#FFFFFF;stroke-width:0.25;stroke-miterlimit:10;}
</style>
<g id="grass">
	<rect x="-8.8" y="-10" class="st0" width="1216.3" height="826.1"/>
	<rect x="59" y="-10" class="st1" width="67.3" height="826.1"/>
	<rect x="193.7" y="-9.9" class="st1" width="67.3" height="826.1"/>
	<rect x="328.8" y="-9.5" class="st1" width="67.3" height="826.1"/>
	<rect x="463.5" y="-9.5" class="st1" width="67.3" height="826.1"/>
	<rect x="598.8" y="-9.9" class="st1" width="67.3" height="826.1"/>
	<rect x="733.5" y="-9.9" class="st1" width="67.3" height="826.1"/>
	<rect x="868.5" y="-9.9" class="st1" width="67.3" height="826.1"/>
	<rect x="1003.2" y="-9.9" class="st1" width="67.3" height="826.1"/>
	<rect x="1139.1" y="-9.9" class="st1" width="67.3" height="826.1"/>
</g>
<g id="Streger">
	<rect x="45.5" y="49.2" class="st2" width="1103.9" height="714.3"/>
	<path class="st2" d="M64.4,46.9c0,0,0.9,17.4-18,21.2"/>
	<path class="st2" d="M1150.8,70.2c0,0-17.3-1.5-18.5-20.8"/>
	<path class="st2" d="M1131.3,763.1c0,0,0.1-17.4,19.2-20.1"/>
	<path class="st2" d="M46.5,743.5c0,0,17.4-1.1,21.4,17.8"/>
	<rect x="19.6" y="366" class="st2" width="25.9" height="87.8"/>
	<rect x="46.2" y="301" class="st2" width="57.7" height="211.9"/>
	<rect x="47.3" y="187.2" class="st2" width="163.2" height="440.1"/>
	
		<rect x="1149.9" y="366" transform="matrix(-1 -4.488644e-11 4.488644e-11 -1 2325.6128 819.7156)" class="st2" width="25.9" height="87.8"/>
	
		<rect x="1091.6" y="301.4" transform="matrix(-1 -4.462265e-11 4.462265e-11 -1 2240.9844 814.7676)" class="st2" width="57.7" height="211.9"/>
	
		<rect x="986" y="186.4" transform="matrix(-1 -4.499480e-11 4.499480e-11 -1 2135.3325 813.0045)" class="st2" width="163.2" height="440.1"/>
	<line class="st2" x1="598.7" y1="50.4" x2="598.7" y2="764.7"/>
	<circle class="st2" cx="601.7" cy="409.3" r="106.4"/>
	<path class="st2" d="M985.1,332.5c-25.2,18.4-41.6,48.1-41.6,81.7c0,33.6,16.4,63.3,41.6,81.7V332.5z"/>
	<path class="st2" d="M210.5,328.2c25.2,18.4,41.6,48.1,41.6,81.7c0,33.6-16.4,63.3-41.6,81.7V328.2z"/>
</g>
<g id="Fodbold">
	<circle class="st3" cx="694.3" cy="248.8" r="34"/>
	<path d="M684.3,216.6l-6.7,8.4l7.8,7.5l13.9-4.2l0.4-9.8l-7.8-3.4C691.9,215,686.7,215.4,684.3,216.6z"/>
	<path d="M664.8,232.1c0,0-1.8,6.7-1.8,13.7l-2.8,1.8C660.3,247.6,660.6,239.1,664.8,232.1z"/>
	<path d="M682.3,247.1c0.3,0.2,10.7,9.5,10.7,9.5l-4.3,12.3c0,0-9,0.5-14.1-1.4c0,0-3.6-10.6-3.6-14.4L682.3,247.1z"/>
	<path d="M710.4,238.6l-3.2,13.8l9,8.1c0,0,7.2-3.4,9.1-8.6c0,0-1.3-9.8-3.6-14.1L710.4,238.6z"/>
	<path class="st4" d="M665.3,231.4c0,0,6.8-5,13.5-6.9"/>
	<path class="st4" d="M698.2,218.7c0,0,4.1-1.6,8.2-1.2"/>
	<path class="st4" d="M682,250c0,0,2.1-16.2,4.3-21.4"/>
	<path class="st4" d="M696.5,226.2c0,0,10.5,7.5,14.8,13.6"/>
	<path class="st4" d="M722.3,229.8c0,0,0.6,4.8-1,10.3"/>
	<path class="st4" d="M728,253.7c0,0-2.1-2.1-4.6-2.6"/>
	<path class="st4" d="M708.4,251.5c0,0-9.1,4.3-17.2,5"/>
	<path class="st4" d="M661.9,244.2c0,0,3.2,6.1,9.7,9.4"/>
	<line class="st4" x1="675.3" y1="266.4" x2="670.2" y2="272.9"/>
	<path class="st4" d="M687.2,267.2c0,0,5.9,8.2,11.6,10.9"/>
	<path class="st4" d="M715.9,258.5c0,0,2.3,6.1-4.3,15.8"/>
	<path d="M695.1,282.8l3.2-5.4c0,0,7.9,0.2,13.7-3.9l2.7,2.3C714.6,275.8,707.8,282.4,695.1,282.8z"/>
</g>
<g id="Danmark">
	<circle class="st5" cx="129.8" cy="396.2" r="68.1"/>
	<path class="st6" d="M196.8,407.5c0,0-76.3-24.8-134.4-1.4c0,0-1.3-5.2-0.2-19.1c0,0,72.1-23.9,135.3,3.5
		C197.4,390.6,199,397.9,196.8,407.5z"/>
	<path class="st6" d="M99.7,458.2c0,0,19.2-65.8,3.6-124.4c0,0,4.4-6.4,18.2-5.1c0,0,14.6,71.1-5.9,135.2
		C115.7,463.9,109.4,460.6,99.7,458.2z"/>
</g>
<g id="Sverige">
	<circle class="st7" cx="1064.6" cy="398.6" r="68.1"/>
	<path class="st8" d="M997.4,388.3c0,0,76.6,23.6,134.4-0.7c0,0,1.3,5.2,0.5,19.1c0,0-71.7,25.1-135.3-1.4
		C997.1,405.3,995.3,398,997.4,388.3z"/>
	<path class="st8" d="M1090.6,335.9c0,0-20.2,68.4-3.7,126.7c0,0-2.4,2.4-17.3,3.7c0,0-15.5-69.5,3.9-133.9
		C1073.5,332.4,1080.9,333.7,1090.6,335.9z"/>
</g>
<g>
	<g>
		<path class="st5" d="M111.2,520.2c0,0-8.5-6.2-10.2-13.2c0,0-3-0.8-5.2,1.1s-11.3,5.4-12.5,23.8c-1.3,18.3,9.9,34.4,47.9,30.4
			c0,0,24.5-3.9,56.1,13.2s82.3,21.6,70.4-1.6c0,0-7.4-10.8-31.4-14.1c0,0-42.7-33-54.7-45.9c0,0-18.4-21-17.7,4.6
			C153.9,518.4,129.6,527.5,111.2,520.2z"/>
		<circle class="st9" cx="169.2" cy="523.3" r="4.9"/>
		<circle class="st9" cx="199" cy="549.3" r="4.9"/>
		<circle class="st9" cx="179.1" cy="531.9" r="4.9"/>
		<circle class="st9" cx="189.3" cy="540.8" r="4.9"/>
		<polygon class="st6" points="171.1,518.6 174.3,516.7 175.9,518 174.1,521.7 		"/>
		<polygon class="st6" points="180.5,526.9 183.8,525 185.4,526.3 183.6,530 		"/>
		<polygon class="st6" points="190.5,535.9 193.7,534 195.3,535.3 193.5,539 		"/>
		<polygon class="st6" points="200.9,544.3 204.1,542.4 205.7,543.7 203.9,547.4 		"/>
		<path class="st6" d="M220.7,555.4c0,0-4.7,14-37.7,18l4.3,2c0,0,28.3-3.8,35.7-18.6L220.7,555.4z"/>
		<path class="st6" d="M155.1,515.6c0,0,10.4-0.2,14.6-4.1l3,3.4l-17.7,4.6V515.6z"/>
		<path class="st6" d="M93.5,510.5c0,0,7.7,9.6,19.5,11.2c0,0-14.4-8.8-17.4-13.8L93.5,510.5z"/>
		<path class="st6" d="M134.9,522.5c-2,3.1-12.4,20.9-31.5,37.2l2.1,1.2c0,0,21.7-18,32.4-38.4L134.9,522.5z"/>
		<path class="st6" d="M144.4,521.3c-0.3,4.1-15.4,23.9-32.4,41.2l2.1,1.2c0,0,23.6-23.1,34.3-43.5L144.4,521.3z"/>
		<path d="M87.7,555.8l0.5,10.2l8,3.5l4-3.2l5.6,2.1l0.5,3.8l8.3,2.1l5.4-7.8C120.2,566.5,99.5,566.1,87.7,555.8z"/>
		<path d="M196.1,583l-0.1,6.7l7.9,2.8l2.5-3.6l5.5,1.2l1.1,4.4l8.2,3.1l4.6-6C225.7,591.5,201.5,586.8,196.1,583z"/>
		<path d="M230.4,592.3l1.9,4.8l6,0.3l1.5-2.9l4.2-0.1l1.3,2.5h5.9l1.6-5.9C252.8,591,241.8,593.3,230.4,592.3z"/>
	</g>
	<circle class="st10" cx="156.7" cy="545.1" r="14.1"/>
	<path class="st6" d="M170.5,547.5c0,0-15.8-5.1-27.8-0.3c0,0-0.3-1.1,0-3.9c0,0,14.9-4.9,28,0.7C170.7,543.9,171,545.5,170.5,547.5
		z"/>
	<path class="st6" d="M150.5,557.9c0,0,4-13.6,0.8-25.7c0,0,0.9-1.3,3.8-1.1c0,0,3,14.7-1.2,27.9
		C153.8,559.1,152.5,558.4,150.5,557.9z"/>
</g>
<g>
	<g>
		<path class="st11" d="M1055.6,530.9c0,0,8.5-6.2,10.2-13.2c0,0,3-0.8,5.2,1.1c2.1,1.9,11.3,5.4,12.5,23.8
			c1.3,18.3-9.9,34.4-47.9,30.4c0,0-24.5-3.9-56.1,13.2c-31.6,17.2-82.3,21.6-70.4-1.6c0,0,7.4-10.8,31.4-14.1
			c0,0,42.7-33,54.7-45.9c0,0,18.4-21,17.7,4.6C1012.9,529.1,1037.2,538.2,1055.6,530.9z"/>
		<circle class="st9" cx="997.6" cy="534" r="4.9"/>
		<circle class="st9" cx="967.8" cy="560" r="4.9"/>
		<circle class="st9" cx="987.7" cy="542.6" r="4.9"/>
		<circle class="st9" cx="977.5" cy="551.5" r="4.9"/>
		<polygon class="st6" points="995.8,529.3 992.5,527.4 990.9,528.7 992.7,532.4 		"/>
		<polygon class="st6" points="986.3,537.6 983.1,535.7 981.5,537 983.3,540.7 		"/>
		<polygon class="st6" points="976.4,546.6 973.2,544.7 971.5,546 973.3,549.7 		"/>
		<polygon class="st6" points="965.9,555 962.7,553.1 961.1,554.4 962.9,558.1 		"/>
		<path class="st6" d="M946.1,566.1c0,0,4.7,14,37.7,18l-4.3,2c0,0-28.3-3.8-35.7-18.6L946.1,566.1z"/>
		<path class="st6" d="M1011.8,526.3c0,0-10.4-0.2-14.6-4.1l-3,3.4l17.7,4.6V526.3z"/>
		<path class="st6" d="M1073.3,521.2c0,0-7.7,9.6-19.5,11.2c0,0,14.4-8.8,17.4-13.8L1073.3,521.2z"/>
		<path class="st6" d="M1031.9,533.2c2,3.1,12.4,20.9,31.5,37.2l-2.1,1.2c0,0-21.7-18-32.4-38.4L1031.9,533.2z"/>
		<path class="st6" d="M1022.5,532c0.3,4.1,15.4,23.9,32.4,41.2l-2.1,1.2c0,0-23.6-23.1-34.3-43.5L1022.5,532z"/>
		<path d="M1079.1,566.4l-0.5,10.2l-8,3.5l-4-3.2l-5.6,2.1l-0.5,3.8l-8.3,2.1l-5.4-7.8C1046.7,577.2,1067.3,576.8,1079.1,566.4z"/>
		<path d="M970.7,593.6l0.1,6.7l-7.9,2.8l-2.5-3.6l-5.5,1.2l-1.1,4.4l-8.2,3.1l-4.6-6C941.1,602.2,965.3,597.5,970.7,593.6z"/>
		<path d="M936.4,603l-1.9,4.8l-6,0.3l-1.5-2.9l-4.2-0.1l-1.3,2.5h-5.9l-1.6-5.9C914,601.7,925,604,936.4,603z"/>
	</g>
	<g>
		<circle class="st12" cx="1008.3" cy="554.6" r="13.5"/>
		<path class="st8" d="M995,552.6c0,0,15.2,4.7,26.6-0.1c0,0,0.3,1,0.1,3.8c0,0-14.2,5-26.8-0.3C995,555.9,994.6,554.5,995,552.6z"
			/>
		<path class="st8" d="M1013.5,542.2c0,0-4,13.5-0.7,25.1c0,0-0.5,0.5-3.4,0.7c0,0-3.1-13.7,0.8-26.5
			C1010.1,541.5,1011.5,541.8,1013.5,542.2z"/>
	</g>
</g>
<g>
	<g>
		<path class="st13" d="M910.7,170.1c0,0,9.2-15-3.7-23.1c0,0-5.7-4.1-15.5-1.1l0.3-5.4c0,0,15.4-5.7,24.1,7c8.7,12.7-1,26-1.7,25.9
			L910.7,170.1z"/>
		<path class="st14" d="M920.1,159.4c0,0-2.8-2.6-7.4-1.6c0,0,2.9,4-2.5,11.9c-5.3,8,5.1,3.8,5.1,3.8S919.2,170.3,920.1,159.4z"/>
	</g>
	<g>
		<path class="st13" d="M830.9,128.6c0,0-8.5,15.4,4.9,22.9c0,0,5.9,3.8,15.6,0.3v5.4c0,0-15.1,6.5-24.4-5.8
			c-9.3-12.3-0.3-26,0.3-25.9L830.9,128.6z"/>
		<path class="st14" d="M822.1,139.7c0,0,3,2.5,7.5,1.2c0,0-3-3.8,1.9-12c4.9-8.2-5.3-3.6-5.3-3.6S822.4,128.8,822.1,139.7z"/>
	</g>
	<path class="st15" d="M865.5,94.5c0,0-20-9.5-15.2,77.9c0,0-0.7,18,16.3,20.3c17.3,2.4,24.9-10.8,25.1-23c0,0-0.2-45.1,5.8-69.1
		L865.5,94.5z"/>
	<path class="st16" d="M890.4,108.1c0,0-4.1,12.7,3.6,15l3-13L890.4,108.1z"/>
	<g>
		<ellipse class="st17" cx="883.5" cy="85.2" rx="3.5" ry="3"/>
		<path class="st18" d="M896.4,115c0,0-59.2-13.2-59.7-26.4c0,0,10.7,8,21.7,6.1c0,0,6.8-13.6,17.8-11.5
			C887.2,85.2,903.2,88.9,896.4,115z"/>
		<path class="st19" d="M860.4,91.8c0,0,2.6,1.7,6.9,1.8l4-5.1c0,0-5.4-0.3-6.1-2C865.1,86.6,861.5,89.7,860.4,91.8z"/>
	</g>
	<polygon class="st6" points="849.7,137 893.1,139.6 893.3,170.9 847.3,169.8 	"/>
	<g>
		<polygon class="st14" points="857.2,169.9 854.5,169.9 854.6,137.3 857.3,137.5 		"/>
		<polygon class="st14" points="866.2,170.2 863.5,170.2 863.5,137.8 866.2,138 		"/>
		<polygon class="st14" points="876,171.2 873.3,171.2 873.3,138.5 876,138.6 		"/>
		<polygon class="st14" points="884.2,171.7 881.4,171.7 881.4,138.9 884.1,139.1 		"/>
	</g>
	<path class="st13" d="M851.2,187.3c0,0-17.4,1.6-37,33c0,0-3.9,1.6-5.1-9.7c0,0,1.4-3.5,3.4-0.6c0,0,0.2,3.8,1.1,4.4
		c0,0,16.9-28.6,36.5-31.3L851.2,187.3z"/>
	<path class="st14" d="M823.2,198.4c0,0,6.2,0.2,5.5,4.9l-13.3,17.9c0,0-7.6,2.9-8-15.3c0,0,2.8-7.5,6.6-0.5c0,0-2.2,6,0.6,3.8
		C815.4,208.7,823.2,198.4,823.2,198.4z"/>
	<path class="st13" d="M881.3,193.3c0,0,4,27.9,35.9,27.3l0.6-3.2c0,0-27.5,1.7-33.5-26.9L881.3,193.3z"/>
	<path class="st14" d="M900.3,220.6c0,0-3.6-5.1,0.5-7.4l22.3-0.4c0,0,6.9,4.2-7.2,15.7c0,0-7.6,2.4-4.4-4.9c0,0,6.1-1.9,2.7-2.8
		C913.2,220.5,900.3,220.6,900.3,220.6z"/>
	<path class="st14" d="M838.8,185.8c0,0,4.2,1.9,5.6,8.5c0,0,7-5.8,10-4.9c0,0,6.9,11.1,24.7,5.3c0,0,1.7,7,5.4,10.8
		c0,0,4.6-5.5,8-5.1c0,0-5.6-4-6.6-10.8c0,0,7.6-5.3,7.5-20l-46.1-0.5c0,0-0.3,7,1.9,12.2C849.1,181.2,844.3,182.2,838.8,185.8z"/>
	<polygon class="st14" points="861.1,129.7 860.9,125.3 868.7,129.4 	"/>
	<path class="st14" d="M861.6,122.4h-1.6c-0.5,0-0.8-0.4-0.8-0.8V115c0-0.5,0.4-0.8,0.8-0.8h1.6c0.5,0,0.8,0.4,0.8,0.8v6.7
		C862.5,122.1,862.1,122.4,861.6,122.4z"/>
	<path class="st14" d="M866.7,122.4h-1.6c-0.5,0-0.8-0.4-0.8-0.8v-6.7c0-0.5,0.4-0.8,0.8-0.8h1.6c0.5,0,0.8,0.4,0.8,0.8v6.7
		C867.6,122,867.2,122.4,866.7,122.4z"/>
	<path class="st6" d="M849,150.4c0,0-4.9,3.8-10,0.5c0,0-2.9,5.1-0.9,8.9c0,0,7.2,2.2,12.3,0L849,150.4z"/>
	<path class="st6" d="M891.7,147.5c0,0,4.8-3.9,10-0.6c0,0,2.9-5.1,0.8-8.9c0,0-10.2-4.6-15,1.8L891.7,147.5z"/>
</g>
</svg>
