<?xml version="1.0" encoding="utf-8"?>
<!-- Generator: Adobe Illustrator 23.0.1, SVG Export Plug-In . SVG Version: 6.00 Build 0)  -->
<svg version="1.1" id="Layer_1" xmlns="http://www.w3.org/2000/svg" xmlns:xlink="http://www.w3.org/1999/xlink" x="0px" y="0px"
	 viewBox="0 0 1500 800" style="enable-background:new 0 0 1500 800;" xml:space="preserve">
<style type="text/css">
	.st0{fill:#5A7C38;}
	.st1{fill:#789B45;}
	.st2{fill:none;stroke:#FFFFFF;stroke-width:5;stroke-miterlimit:10;}
	.st3{display:none;}
	.st4{display:inline;fill:#FFFFFF;stroke:#000000;stroke-width:2;stroke-miterlimit:10;}
	.st5{display:inline;}
	.st6{display:inline;fill:none;stroke:#000000;stroke-miterlimit:10;}
	.st7{display:inline;fill:#C52026;stroke:#FFFFFF;stroke-width:3;stroke-miterlimit:10;}
	.st8{display:inline;fill:#FFFFFF;}
	.st9{display:inline;fill:#4051A3;stroke:#E7E51A;stroke-width:3;stroke-miterlimit:10;}
	.st10{display:inline;fill:#E7E514;}
</style>
<g>
	<g id="grass">
		<rect x="-2" y="0.6" class="st0" width="1505.4" height="798.1"/>
		<rect x="81.9" y="0.6" class="st1" width="83.4" height="798"/>
		<rect x="248.6" y="0.6" class="st1" width="83.4" height="798"/>
		<rect x="415.8" y="1" class="st1" width="83.4" height="798"/>
		<rect x="582.5" y="1.1" class="st1" width="83.4" height="798"/>
		<rect x="750.1" y="0.7" class="st1" width="83.4" height="798"/>
		<rect x="916.8" y="0.7" class="st1" width="83.4" height="798"/>
		<rect x="1083.9" y="0.7" class="st1" width="83.4" height="798"/>
		<rect x="1250.6" y="0.7" class="st1" width="83.4" height="798"/>
		<rect x="1418.8" y="0.7" class="st1" width="83.4" height="798"/>
	</g>
	<circle class="st2" cx="749.8" cy="387" r="106.4"/>
	<g>
		<path class="st2" d="M105.2,39.2c0,0,1.1,17.4-21.8,21.2"/>
		<path class="st2" d="M1416.3,62.5c0,0-20.9-1.5-22.3-20.8"/>
		<g>
			<rect x="82.4" y="41.5" class="st2" width="1332.3" height="714.3"/>
			<path class="st2" d="M1392.8,755.4c0,0,0.1-17.4,23.2-20.1"/>
			<path class="st2" d="M83.5,735.8c0,0,20.9-1.1,25.8,17.8"/>
			<rect x="51.2" y="358.3" class="st2" width="31.2" height="87.8"/>
			<rect x="83.3" y="293.3" class="st2" width="69.7" height="211.9"/>
			<rect x="84.5" y="179.5" class="st2" width="197" height="440.1"/>
			
				<rect x="1415.2" y="358.3" transform="matrix(-1 -3.719126e-11 3.719126e-11 -1 2861.6985 804.2994)" class="st2" width="31.2" height="87.8"/>
			
				<rect x="1344.9" y="293.7" transform="matrix(-1 -3.697277e-11 3.697277e-11 -1 2759.5601 799.3515)" class="st2" width="69.7" height="211.9"/>
			
				<rect x="1217.5" y="178.7" transform="matrix(-1 -3.728097e-11 3.728097e-11 -1 2632.0479 797.5884)" class="st2" width="197" height="440.1"/>
			<line class="st2" x1="750" y1="42.7" x2="750" y2="757"/>
			<path class="st2" d="M1216.4,324.8c-30.4,18.4-50.3,48.1-50.3,81.7c0,33.6,19.8,63.3,50.3,81.7V324.8z"/>
			<path class="st2" d="M281.6,320.5c30.4,18.4,50.3,48.1,50.3,81.7c0,33.6-19.8,63.3-50.3,81.7V320.5z"/>
		</g>
	</g>
</g>
<g id="Fodbold" class="st3">
	<circle class="st4" cx="875.6" cy="160" r="34"/>
	<path class="st5" d="M865.7,127.7l-6.7,8.4l7.8,7.5l13.9-4.2l0.4-9.8l-7.8-3.4C873.3,126.2,868,126.5,865.7,127.7z"/>
	<path class="st5" d="M846.2,143.3c0,0-1.8,6.7-1.8,13.7l-2.8,1.8C841.6,158.7,841.9,150.2,846.2,143.3z"/>
	<path class="st5" d="M863.7,158.2c0.3,0.2,10.7,9.5,10.7,9.5l-4.3,12.3c0,0-9,0.5-14.1-1.4c0,0-3.6-10.6-3.6-14.4L863.7,158.2z"/>
	<path class="st5" d="M891.7,149.8l-3.2,13.8l9,8.1c0,0,7.2-3.4,9.1-8.6c0,0-1.3-9.8-3.6-14.1L891.7,149.8z"/>
	<path class="st6" d="M846.7,142.5c0,0,6.8-5,13.5-6.9"/>
	<path class="st6" d="M879.5,129.8c0,0,4.1-1.6,8.2-1.2"/>
	<path class="st6" d="M863.3,161.1c0,0,2.1-16.2,4.3-21.4"/>
	<path class="st6" d="M877.8,137.3c0,0,10.5,7.5,14.8,13.6"/>
	<path class="st6" d="M903.6,140.9c0,0,0.6,4.8-1,10.3"/>
	<path class="st6" d="M909.3,164.9c0,0-2.1-2.1-4.6-2.6"/>
	<path class="st6" d="M889.8,162.7c0,0-9.1,4.3-17.2,5"/>
	<path class="st6" d="M843.2,155.4c0,0,3.2,6.1,9.7,9.4"/>
	<line class="st6" x1="856.7" y1="177.5" x2="851.5" y2="184"/>
	<path class="st6" d="M868.6,178.3c0,0,5.9,8.2,11.6,10.9"/>
	<path class="st6" d="M897.2,169.7c0,0,2.3,6.1-4.3,15.8"/>
	<path class="st5" d="M876.4,194l3.2-5.4c0,0,7.9,0.2,13.7-3.9l2.7,2.3C896,186.9,889.2,193.5,876.4,194z"/>
</g>
<g id="Danmark" class="st3">
	<circle class="st7" cx="123.2" cy="397.6" r="68.1"/>
	<path class="st8" d="M190.2,408.9c0,0-76.3-24.8-134.4-1.4c0,0-1.3-5.2-0.2-19.1c0,0,72.1-23.9,135.3,3.5
		C190.8,392,192.4,399.2,190.2,408.9z"/>
	<path class="st8" d="M93.1,459.6c0,0,19.2-65.8,3.6-124.4c0,0,4.4-6.4,18.2-5.1c0,0,14.6,71.1-5.9,135.2
		C109.1,465.3,102.8,462,93.1,459.6z"/>
</g>
<g id="Sverige" class="st3">
	<circle class="st9" cx="1312.7" cy="391.7" r="68.1"/>
	<path class="st10" d="M1245.5,381.4c0,0,76.6,23.6,134.4-0.7c0,0,1.3,5.2,0.5,19.1c0,0-71.7,25.1-135.3-1.4
		C1245.2,398.4,1243.4,391.1,1245.5,381.4z"/>
	<path class="st10" d="M1338.7,329c0,0-20.2,68.4-3.7,126.7c0,0-2.4,2.4-17.3,3.7c0,0-15.5-69.5,3.9-133.9
		C1321.6,325.5,1329,326.7,1338.7,329z"/>
</g>
</svg>
