<?xml version="1.0" encoding="utf-8"?>
<!-- Generator: Adobe Illustrator 23.0.1, SVG Export Plug-In . SVG Version: 6.00 Build 0)  -->
<svg version="1.1" id="Layer_1" xmlns="http://www.w3.org/2000/svg" xmlns:xlink="http://www.w3.org/1999/xlink" x="0px" y="0px"
	 viewBox="0 0 1200 800" style="enable-background:new 0 0 1200 800;" xml:space="preserve">
<style type="text/css">
	.st0{fill:#241F33;}
	.st1{fill:#299A8B;}
	.st2{fill:#A46854;}
	.st3{fill:#A28959;}
	.st4{fill:#2D988B;}
	.st5{fill:#A38957;}
	.st6{fill:#A2654E;}
	.st7{fill:#A16856;}
	.st8{fill:#A19E59;}
	.st9{fill:#2F978A;}
	.st10{fill:#9F9E58;}
	.st11{fill:#9F6654;}
	.st12{fill:#7A1645;}
	.st13{fill:#A11D52;}
	.st14{fill:#991C53;}
	.st15{fill:#28233A;}
	.st16{fill:#402F4F;}
	.st17{fill:#2F2742;}
	.st18{fill:#2B4D4F;}
	.st19{fill:#335E64;}
	.st20{fill:#A28C68;}
	.st21{fill:#8C785A;}
	.st22{fill:#912544;}
	.st23{fill:#7B213F;}
	.st24{fill:url(#SVGID_1_);}
	.st25{fill:url(#SVGID_2_);}
	.st26{fill:#CFCFCE;}
	.st27{fill:#CED2E0;stroke:#586787;stroke-miterlimit:10;}
	.st28{fill:#CFCFCE;stroke:#586787;stroke-miterlimit:10;}
	.st29{fill:#969395;}
	.st30{fill:none;stroke:#FFFFFF;stroke-miterlimit:10;}
	.st31{fill:#A1A2B1;stroke:#586787;stroke-miterlimit:10;}
	.st32{fill:#E9E8E8;stroke:#586787;stroke-miterlimit:10;}
	.st33{fill:#E2E2E2;stroke:#586787;stroke-miterlimit:10;}
	.st34{fill:#586787;}
	.st35{fill:#777575;stroke:#FFFFFF;stroke-width:8;stroke-miterlimit:10;}
	.st36{fill:#777575;stroke:#ABABAA;stroke-width:4;stroke-miterlimit:10;}
	.st37{fill:#B7B7B7;stroke:#FFFFFF;stroke-width:2;stroke-miterlimit:10;}
	.st38{fill:#DFC638;stroke:#FFFFFF;stroke-width:2;stroke-miterlimit:10;}
	.st39{fill:#878787;stroke:#FFFFFF;stroke-width:2;stroke-miterlimit:10;}
	.st40{fill:#B7B7B7;stroke:#FFFFFF;stroke-width:3;stroke-miterlimit:10;}
</style>
<rect id="background" x="-13.1" y="-11.1" class="st0" width="1220.6" height="815.1"/>
<circle class="st1" cx="443.9" cy="415.4" r="11.6"/>
<circle class="st2" cx="208.2" cy="555.2" r="7.9"/>
<circle class="st3" cx="291.4" cy="448.9" r="8.8"/>
<circle class="st4" cx="475.4" cy="163.2" r="12.5"/>
<circle class="st5" cx="420.4" cy="225.6" r="5.5"/>
<circle class="st6" cx="200.6" cy="285.9" r="3.7"/>
<circle class="st6" cx="167.8" cy="691.5" r="3.7"/>
<circle class="st6" cx="297.4" cy="343.6" r="3.7"/>
<circle class="st7" cx="331.6" cy="675.9" r="6.9"/>
<circle class="st8" cx="224" cy="79.3" r="6.9"/>
<circle class="st9" cx="848.7" cy="281" r="12.7"/>
<circle class="st9" cx="442.9" cy="713.3" r="12.7"/>
<polygon id="star_5_" class="st8" points="328.5,136.3 331.5,142.5 338.4,143.4 333.4,148.3 334.6,155.1 328.5,151.8 322.4,155.1 
	323.5,148.3 318.6,143.4 325.4,142.5 "/>
<polygon id="star_4_" class="st10" points="146.3,140.7 148.8,145.6 154.3,146.4 150.3,150.3 151.3,155.8 146.3,153.2 141.4,155.8 
	142.4,150.3 138.4,146.4 143.9,145.6 "/>
<polygon id="star_3_" class="st8" points="399.1,295.6 402.7,302.9 410.7,304.1 404.9,309.8 406.3,317.8 399.1,314 391.9,317.8 
	393.3,309.8 387.5,304.1 395.5,302.9 "/>
<polygon id="star_2_" class="st8" points="386.2,543.4 390.4,552 399.8,553.4 393,560 394.6,569.4 386.2,565 377.7,569.4 379.3,560 
	372.5,553.4 381.9,552 "/>
<polygon id="star_1_" class="st8" points="991.8,128.1 995.5,135.5 1003.7,136.7 997.8,142.5 999.2,150.7 991.8,146.8 984.5,150.7 
	985.9,142.5 980,136.7 988.2,135.5 "/>
<polygon id="star" class="st8" points="815.8,487.2 818.2,492 823.5,492.8 819.7,496.5 820.6,501.9 815.8,499.3 811,501.9 
	811.9,496.5 808.1,492.8 813.4,492 "/>
<circle class="st11" cx="896.2" cy="77" r="7.9"/>
<circle class="st11" cx="928.2" cy="175.2" r="8.5"/>
<circle class="st11" cx="629.5" cy="364.6" r="10.3"/>
<circle class="st11" cx="901.6" cy="371.7" r="5.4"/>
<circle class="st11" cx="1019.4" cy="329.5" r="6.1"/>
<circle class="st11" cx="953.4" cy="424.8" r="6.7"/>
<circle class="st11" cx="570.2" cy="566.7" r="5.4"/>
<circle class="st11" cx="709" cy="487" r="6.1"/>
<circle class="st11" cx="606.1" cy="628" r="6.7"/>
<circle class="st11" cx="804.1" cy="89.3" r="6.1"/>
<circle class="st11" cx="769.1" cy="181.8" r="6.7"/>
<circle class="st5" cx="584.2" cy="85.9" r="4"/>
<g id="big_x5F_planet_4_">
	<ellipse class="st12" cx="624" cy="213.6" rx="43.4" ry="43.2"/>
	<g>
		<circle class="st13" cx="626.8" cy="215.2" r="42.3"/>
		<circle class="st12" cx="619.3" cy="200.3" r="12.7"/>
		<ellipse class="st14" cx="620" cy="201.1" rx="11.5" ry="11.7"/>
		<circle class="st12" cx="598.7" cy="223.5" r="4.8"/>
		<circle class="st14" cx="599" cy="223.7" r="4.3"/>
		<circle class="st12" cx="614.7" cy="240.5" r="9.2"/>
		<ellipse class="st14" cx="614.9" cy="241" rx="8.7" ry="8.5"/>
	</g>
</g>
<g id="big_x5F_planet_3_">
	
		<ellipse transform="matrix(0.7385 -0.6743 0.6743 0.7385 -195.757 702.4973)" class="st15" cx="807.8" cy="603.6" rx="23.7" ry="24"/>
	<circle class="st16" cx="808.3" cy="604.9" r="23.7"/>
	<g>
		<circle class="st17" cx="803.9" cy="590.6" r="4.5"/>
		<circle class="st16" cx="804.1" cy="590.9" r="4.1"/>
	</g>
	<g>
		<circle class="st17" cx="798.3" cy="607.7" r="7.3"/>
		<circle class="st16" cx="798.7" cy="608.3" r="6.6"/>
	</g>
</g>
<g id="big_x5F_planet_2_">
	
		<ellipse transform="matrix(0.7385 -0.6743 0.6743 0.7385 -68.9272 212.7935)" class="st18" cx="239.9" cy="195.3" rx="23.7" ry="24"/>
	<circle class="st19" cx="240.4" cy="196.5" r="23.7"/>
	<circle class="st18" cx="236" cy="182.2" r="4.5"/>
	<circle class="st19" cx="236.2" cy="182.6" r="4.1"/>
	<circle class="st18" cx="230.4" cy="199.4" r="7.3"/>
	<circle class="st19" cx="230.7" cy="200" r="6.6"/>
</g>
<g id="big_x5F_planet_1_">
	<circle class="st20" cx="936.9" cy="684.1" r="10.9"/>
	<g>
		<circle class="st21" cx="933.5" cy="680.8" r="2.6"/>
		<circle class="st20" cx="933.6" cy="681" r="2.4"/>
	</g>
	<g>
		<circle class="st21" cx="936.7" cy="689.7" r="3.5"/>
		<circle class="st20" cx="936.7" cy="689.9" r="3.3"/>
	</g>
</g>
<g id="big_x5F_planet">
	<circle class="st22" cx="993.8" cy="576.9" r="17.5"/>
	<g>
		<circle class="st23" cx="990.9" cy="569.5" r="8"/>
		<circle class="st22" cx="991.2" cy="570.1" r="7.1"/>
	</g>
</g>
<g id="deathstar">
	<linearGradient id="SVGID_1_" gradientUnits="userSpaceOnUse" x1="1106.9509" y1="364.2236" x2="1147.6831" y2="476.1344">
		<stop  offset="0.1501" style="stop-color:#97A0B0"/>
		<stop  offset="0.1868" style="stop-color:#9099AA"/>
		<stop  offset="0.4899" style="stop-color:#6D7689"/>
		<stop  offset="0.7344" style="stop-color:#596478"/>
		<stop  offset="0.8883" style="stop-color:#525D72"/>
	</linearGradient>
	<path class="st24" d="M1154.8,461.1l14-7.4l-13.1-0.4l10.7-5l-14.2-5.5l20.5-0.4l0.2-7.2h-6.8l6.3-7l13.7-0.2v-13.7h-12.9l-7.4-7.2
		h13.1l-7.6-6.5h-26.6l7.4-7.9l18.3,0.2l-5.2-6.3l-8.3-0.7l-11.6-6.1l12-0.4l-19.4-7l8.7-4.6l7.9-2.2c-7.7-3.6-16.3-5.7-25.3-5.7
		c-32.9,0-59.5,26.7-59.5,59.5c0,32.9,26.7,59.5,59.5,59.5c16.2,0,31-6.5,41.7-17.1L1154.8,461.1z"/>
	<linearGradient id="SVGID_2_" gradientUnits="userSpaceOnUse" x1="1106.5847" y1="417.997" x2="1107.4557" y2="383.9895">
		<stop  offset="0.1501" style="stop-color:#97A0B0"/>
		<stop  offset="1" style="stop-color:#525D72"/>
	</linearGradient>
	<circle class="st25" cx="1107.1" cy="398.5" r="17"/>
</g>
<g id="falcom">
	
		<ellipse transform="matrix(0.7071 -0.7071 0.7071 0.7071 -268.8333 173.5222)" class="st26" cx="75" cy="411.3" rx="2.3" ry="0.8"/>
	<path class="st27" d="M72,382.7l-9.2-9.4l0.3-3.1l-10.8-10.6l-2.7-0.1l-3.9-3.6l-4,3.9l19.2,52.2C60.9,411.9,61.6,396.7,72,382.7z"
		/>
	<path class="st27" d="M85,369.8l-9.4-9.2l-3.1,0.3l-10.6-10.8l-0.1-2.7l-3.6-3.9l3.9-4l52.2,19.2C114.2,358.7,99,359.5,85,369.8z"
		/>
	<path class="st27" d="M126.6,480.3c0,0,45.9,0.2,55.9-55.8l-0.5-0.9l-3.6-6.8l-2.7-0.2l0.2,4.7l-0.9,7c0,0-2.9,12.7-10.3,22.3
		c-7.4,9.5-14.8,16.1-27.2,20.4c0,0-7.1,2.9-12.2,2.8L126.6,480.3z"/>
	<line class="st28" x1="182.1" y1="424" x2="175.4" y2="423"/>
	<g>
		<path class="st29" d="M126.7,417.8l31.1,5.8l2.8-3l15.5,2c0,0-3.2,19.9-15.5,33.2c-12.3,13.3-28.3,17.8-36.3,17.7l-0.7-15.8
			l2.5-2.7l-5.2-28.2L126.7,417.8z"/>
		<path class="st30" d="M124.3,466.1c0,0,37.5-1.7,44.3-43.8"/>
	</g>
	<path class="st27" d="M159.1,387.3l2.8-6.9l-8.1-7.7l-5.6,3.3l2.4-6.9c-22.4-15.3-53.2-13-73.1,6.8c-19.7,19.7-22.1,50-7.3,72.3
		l7.8-2.7l-2.8,6.9l8.1,7.6l5.6-3.4l-2.6,7.8c22.3,14.9,52.8,12.5,72.6-7.2c19.7-19.7,22.1-50.1,7.3-72.4L159.1,387.3z"/>
	<g>
		<circle class="st31" cx="129.2" cy="441" r="3.9"/>
		<circle class="st31" cx="133.1" cy="452.3" r="3.9"/>
		<circle class="st31" cx="137.4" cy="435.7" r="3.9"/>
		<circle class="st31" cx="142.5" cy="427.1" r="3.9"/>
		<circle class="st31" cx="146.2" cy="444.1" r="3.9"/>
		<circle class="st31" cx="154.4" cy="431.5" r="3.9"/>
	</g>
	<g>
		<circle class="st32" cx="119.4" cy="417.1" r="14.7"/>
		<circle class="st32" cx="119.5" cy="417" r="14.7"/>
	</g>
	<polygon class="st31" points="114,346.6 118.6,356.7 120.1,355.4 120.4,351.2 115.9,344.4 	"/>
	<path class="st32" d="M128.5,346.8l-0.4,0.6c-0.1,0.2-0.4,0.3-0.6,0.2l-8.6-5.3c-0.2-0.1-0.3-0.4-0.2-0.6l0.4-0.6
		c0.1-0.2,0.4-0.3,0.6-0.2l8.6,5.3C128.5,346.4,128.6,346.6,128.5,346.8z"/>
	<path class="st32" d="M121.4,340.7l-7,7c-0.3,0.3-0.7,0.3-1,0l-0.3-0.3c-0.3-0.3-0.3-0.7,0-1l7-7c0.3-0.3,0.7-0.3,1,0l0.3,0.3
		C121.7,339.9,121.7,340.4,121.4,340.7z"/>
	<path class="st31" d="M117.4,396.7c0,0,4.4-1.4,10.4,1.7l13.2-42l-10.6-10.9l-2.3,2.3l-4-0.4l-3.6,3.1l0.2,4.4l-2.1,1.8l3.8,3.5
		L117.4,396.7z"/>
	<polygon class="st33" points="98.7,386.2 82.9,372.9 83.5,372.3 75.3,364.1 66.3,373.1 74.5,381.3 75.1,380.7 88.5,396.3 
		87.5,397.3 101.1,410.9 113.7,398.3 100.1,384.7 	"/>
	<path class="st31" d="M148.4,376.9l10.3,10.6c0,0-22.6,22.7-22.9,22.4s-8.8-9.3-8.8-9.3L148.4,376.9z"/>
	<path class="st31" d="M78.9,445.5l10.6,10.3c0,0,22.7-22.6,22.4-22.9c-0.3-0.3-9.3-8.8-9.3-8.8L78.9,445.5z"/>
	
		<ellipse transform="matrix(0.7071 -0.7071 0.7071 0.7071 -268.7659 173.6447)" class="st32" cx="75.2" cy="411.3" rx="8.1" ry="4.3"/>
	<g>
		<circle class="st31" cx="58" cy="379.1" r="3.9"/>
		<circle class="st31" cx="61.2" cy="394.1" r="3.9"/>
		<circle class="st31" cx="81.2" cy="355.1" r="3.9"/>
		<circle class="st31" cx="96" cy="359.3" r="3.9"/>
	</g>
	
		<ellipse transform="matrix(0.7071 -0.7071 0.7071 0.7071 -268.9029 173.5761)" class="st34" cx="75.1" cy="411.4" rx="2.5" ry="1.9"/>
</g>
<g id="bombe">
	<g>
		<circle class="st35" cx="594.8" cy="430.7" r="32.5"/>
		<circle class="st36" cx="595" cy="430.5" r="30.8"/>
	</g>
	<g>
		<path class="st37" d="M627.8,398c-0.8,1.5-6.2,0.2-12.1-3c-5.9-3.2-10.2-6.9-9.4-8.5c0.8-1.5,6.4-0.2,12.3,3
			C624.5,392.7,628.6,396.5,627.8,398z"/>
		<path class="st38" d="M628.3,369.7c0,0,6.8,20.4,6.8,20.1c0.1-0.4,0.7-18,0.7-18l11.4-0.5l-8.8-5.6l4.8-9.2l-8.7,5.2l-9.5-7.4
			l1.8,8.8l-11.8,4.5L628.3,369.7z"/>
		<g>
			<path class="st39" d="M629.1,374.6c0,0-5.7,0.9-6,4.1c0,0-0.8,2,0.3,4.6s-0.8,6-4.2,9c0,0-4.4,0.1-3.1-3.5c0,0,2.5-3.2,2.9-4.9
				s-2.3-5.7,1.4-9c2-1.8,3.7-2.9,4.8-3.6c0.9-0.5,1.4-0.7,1.4-0.7l1.6,0.1L629.1,374.6z"/>
			<line class="st30" x1="627.3" y1="374.8" x2="625.5" y2="370.9"/>
			<line class="st30" x1="625.1" y1="376.1" x2="622.9" y2="372.7"/>
			<line class="st30" x1="623.3" y1="377.9" x2="620.6" y2="374.6"/>
			<line class="st30" x1="622.8" y1="381.4" x2="618.6" y2="377.7"/>
			<line class="st30" x1="623" y1="387" x2="618.7" y2="381.6"/>
			<line class="st30" x1="620.8" y1="390.6" x2="617.8" y2="386.1"/>
		</g>
		<path class="st40" d="M605.5,390l-4.5,8.5c0,0,5.8,8.8,18.5,10.5l6-8.9C625.5,400,610.9,396.9,605.5,390z"/>
	</g>
</g>
</svg>
