<?xml version="1.0" encoding="utf-8"?>
<!-- Generator: Adobe Illustrator 23.0.1, SVG Export Plug-In . SVG Version: 6.00 Build 0)  -->
<svg version="1.1" id="Layer_1" xmlns="http://www.w3.org/2000/svg" xmlns:xlink="http://www.w3.org/1999/xlink" x="0px" y="0px"
	 viewBox="0 0 206.2 183" style="enable-background:new 0 0 206.2 183;" xml:space="preserve">
<style type="text/css">
	.st0{fill:#8E562E;stroke:#000000;stroke-width:12;stroke-miterlimit:10;}
	.st1{fill:#613D30;}
	.st2{stroke:#FFFFFF;stroke-width:7;stroke-miterlimit:10;}
	.st3{fill:#E81224;}
	.st4{fill:none;stroke:#000000;stroke-width:12;stroke-miterlimit:10;}
</style>
<image style="display:none;overflow:visible;" width="213" height="181" xlink:href="F52BDBF9.png"  transform="matrix(2.6338 0 0 2.6338 -178.045 -104.3587)">
</image>
<g>
	<path class="st0" d="M74.8,43.2l25-0.7c0,0,13.2-6.2,12.5-35.7c0,0,59.6,5,39.9,67.9c0,0,38.8,8,27.7,43.7c0,0,21.1,7.1,20.4,28.8
		s-13,29.8-21.1,29.8s-150.8,0-150.8,0s-21.8-6.6-22.2-26s15.6-30.2,25.6-30.2c0,0-14.2-37.3,21.5-42.3
		C53.3,78.5,43.7,44.4,74.8,43.2z"/>
	<path class="st1" d="M159.5,83.7h-103c-2.1,0-3.9-1.8-3.9-3.9v-3.5c0-2.1,1.8-3.9,3.9-3.9h103c2.1,0,3.9,1.8,3.9,3.9v3.5
		C163.4,81.9,161.7,83.7,159.5,83.7z"/>
	<path class="st1" d="M185.1,128.9H25.2c-2,0-3.6-1.6-3.6-3.6v-5.1c0-2,1.6-3.6,3.6-3.6h159.9c2,0,3.6,1.6,3.6,3.6v5.1
		C188.7,127.2,187.1,128.9,185.1,128.9z"/>
	<path class="st1" d="M192.6,174.7H19c-3.3,0-6-2.7-6-6v-3.4c0-3.3,2.7-6,6-6h173.5c3.3,0,6,2.7,6,6v3.4
		C198.5,172.1,195.8,174.7,192.6,174.7z"/>
	<g>
		<path class="st2" d="M80,119h-2.4c-6.6,0-12-5.4-12-12V89.7c0-6.6,5.4-12,12-12H80c6.6,0,12,5.4,12,12V107
			C92,113.6,86.6,119,80,119z"/>
		<path class="st2" d="M133.9,117.3h-4.1c-6.6,0-12-5.4-12-12V91.5c0-6.6,5.4-12,12-12h4.1c6.6,0,12,5.4,12,12v13.8
			C145.9,111.9,140.5,117.3,133.9,117.3z"/>
	</g>
	<g>
		<path d="M71.9,141.9l64.5-0.3c0,0-6.2,29.6-19.8,30.8s-25.3,0.3-25.3,0.3s-2.4-1.4-5.5-4C80.2,163.9,72.3,154.9,71.9,141.9z"/>
		<path class="st3" d="M87.5,167.4c0,0,16.3-22.5,32.9,0.7l1.6,2l-2.7,1.8l-5.3,0.8l-9,0.3h-9.6l-3.2-0.1l-2.3-1l-3.7-2.9
			L87.5,167.4z"/>
	</g>
	<path class="st4" d="M74.6,42.9l25-0.7c0,0,13.2-6.2,12.5-35.7c0,0,59.6,5,39.9,67.9c0,0,38.8,8,27.7,43.7c0,0,21.1,7.1,20.4,28.8
		c-0.7,21.7-13,29.8-21.1,29.8s-150.8,0-150.8,0s-21.8-6.6-22.2-26c-0.3-19.4,15.6-30.2,25.6-30.2c0,0-14.2-37.3,21.5-42.3
		C53.1,78.3,43.6,44.1,74.6,42.9z"/>
</g>
</svg>
