<?xml version="1.0" encoding="utf-8"?>
<!-- Generator: Adobe Illustrator 23.0.1, SVG Export Plug-In . SVG Version: 6.00 Build 0)  -->
<svg version="1.1" id="Layer_1" xmlns="http://www.w3.org/2000/svg" xmlns:xlink="http://www.w3.org/1999/xlink" x="0px" y="0px"
	 viewBox="0 0 70 70" style="enable-background:new 0 0 70 70;" xml:space="preserve">
<style type="text/css">
	.st0{fill:#FFFFFF;stroke:#000000;stroke-width:2;stroke-miterlimit:10;}
	.st1{fill:none;stroke:#000000;stroke-miterlimit:10;}
</style>
<g id="Fodbold">
	<circle class="st0" cx="35" cy="35" r="34"/>
	<path d="M25,2.7l-6.7,8.4l7.8,7.5l13.9-4.2l0.4-9.8l-7.8-3.4C32.7,1.2,27.4,1.5,25,2.7z"/>
	<path d="M5.5,18.3c0,0-1.8,6.7-1.8,13.7L1,33.7C1,33.7,1.3,25.2,5.5,18.3z"/>
	<path d="M23.1,33.2c0.3,0.2,10.7,9.5,10.7,9.5L29.5,55c0,0-9,0.5-14.1-1.4c0,0-3.6-10.6-3.6-14.4L23.1,33.2z"/>
	<path d="M51.1,24.8l-3.2,13.8l9,8.1c0,0,7.2-3.4,9.1-8.6c0,0-1.3-9.8-3.6-14.1L51.1,24.8z"/>
	<path class="st1" d="M6.1,17.5c0,0,6.8-5,13.5-6.9"/>
	<path class="st1" d="M38.9,4.8c0,0,4.1-1.6,8.2-1.2"/>
	<path class="st1" d="M22.7,36.1c0,0,2.1-16.2,4.3-21.4"/>
	<path class="st1" d="M37.2,12.3c0,0,10.5,7.5,14.8,13.6"/>
	<path class="st1" d="M63,15.9c0,0,0.6,4.8-1,10.3"/>
	<path class="st1" d="M68.7,39.9c0,0-2.1-2.1-4.6-2.6"/>
	<path class="st1" d="M49.1,37.7c0,0-9.1,4.3-17.2,5"/>
	<path class="st1" d="M2.6,30.4c0,0,3.2,6.1,9.7,9.4"/>
	<line class="st1" x1="16" y1="52.5" x2="10.9" y2="59"/>
	<path class="st1" d="M28,53.3c0,0,5.9,8.2,11.6,10.9"/>
	<path class="st1" d="M56.6,44.7c0,0,2.3,6.1-4.3,15.8"/>
	<path d="M35.8,69l3.2-5.4c0,0,7.9,0.2,13.7-3.9l2.7,2.3C55.4,61.9,48.6,68.5,35.8,69z"/>
</g>
</svg>
